G75*
%MOIN*%
%OFA0B0*%
%FSLAX25Y25*%
%IPPOS*%
%LPD*%
%AMOC8*
5,1,8,0,0,1.08239X$1,22.5*
%
%ADD10C,0.06800*%
%ADD11R,0.06700X0.08700*%
%ADD12R,0.15800X0.08700*%
%ADD13R,0.07099X0.06312*%
%ADD14R,0.05524X0.03950*%
%ADD15R,0.03556X0.04343*%
%ADD16R,0.06312X0.07099*%
%ADD17R,0.08200X0.08200*%
%ADD18C,0.08200*%
%ADD19R,0.03950X0.05524*%
%ADD20R,0.22060X0.25209*%
%ADD21R,0.04737X0.07099*%
%ADD22R,0.05800X0.10800*%
%ADD23R,0.12611X0.06312*%
%ADD24C,0.00500*%
%ADD25R,0.03556X0.05524*%
%ADD26R,0.08674X0.05524*%
%ADD27C,0.06343*%
%ADD28R,0.04343X0.03556*%
%ADD29C,0.04762*%
%ADD30C,0.04800*%
%ADD31C,0.04369*%
D10*
X0123000Y0210010D02*
X0123000Y0216010D01*
X0133000Y0216010D02*
X0133000Y0210010D01*
X0143000Y0210010D02*
X0143000Y0216010D01*
X0153000Y0216010D02*
X0153000Y0210010D01*
X0163000Y0210010D02*
X0163000Y0216010D01*
X0173000Y0216010D02*
X0173000Y0210010D01*
X0183000Y0210010D02*
X0183000Y0216010D01*
X0193000Y0216010D02*
X0193000Y0210010D01*
X0213000Y0210010D02*
X0213000Y0216010D01*
X0223000Y0216010D02*
X0223000Y0210010D01*
X0233000Y0210010D02*
X0233000Y0216010D01*
X0243000Y0216010D02*
X0243000Y0210010D01*
X0253000Y0210010D02*
X0253000Y0216010D01*
X0263000Y0216010D02*
X0263000Y0210010D01*
X0273000Y0210010D02*
X0273000Y0216010D01*
X0283000Y0216010D02*
X0283000Y0210010D01*
X0283000Y0260010D02*
X0283000Y0266010D01*
X0273000Y0266010D02*
X0273000Y0260010D01*
X0263000Y0260010D02*
X0263000Y0266010D01*
X0253000Y0266010D02*
X0253000Y0260010D01*
X0243000Y0260010D02*
X0243000Y0266010D01*
X0233000Y0266010D02*
X0233000Y0260010D01*
X0223000Y0260010D02*
X0223000Y0266010D01*
X0213000Y0266010D02*
X0213000Y0260010D01*
X0193000Y0260010D02*
X0193000Y0266010D01*
X0183000Y0266010D02*
X0183000Y0260010D01*
X0173000Y0260010D02*
X0173000Y0266010D01*
X0163000Y0266010D02*
X0163000Y0260010D01*
X0153000Y0260010D02*
X0153000Y0266010D01*
X0143000Y0266010D02*
X0143000Y0260010D01*
X0133000Y0260010D02*
X0133000Y0266010D01*
X0123000Y0266010D02*
X0123000Y0260010D01*
D11*
X0230350Y0151860D03*
X0239350Y0151860D03*
X0248350Y0151860D03*
D12*
X0239250Y0176660D03*
D13*
X0254250Y0129772D03*
X0254250Y0118748D03*
X0236750Y0116248D03*
X0236750Y0127272D03*
D14*
X0225500Y0129053D03*
X0225500Y0134467D03*
X0225500Y0141553D03*
X0225500Y0121967D03*
X0193000Y0120717D03*
X0193000Y0127803D03*
D15*
X0282941Y0179260D03*
X0288059Y0179260D03*
D16*
X0262262Y0101760D03*
X0251238Y0101760D03*
X0222262Y0099260D03*
X0211238Y0099260D03*
D17*
X0136750Y0183010D03*
X0138000Y0283010D03*
X0238000Y0283010D03*
D18*
X0248000Y0283010D03*
X0258000Y0283010D03*
X0268000Y0283010D03*
X0298000Y0283010D03*
X0298000Y0273010D03*
X0298000Y0263010D03*
X0298000Y0253010D03*
X0298000Y0243010D03*
X0298000Y0233010D03*
X0298000Y0213010D03*
X0298000Y0203010D03*
X0298000Y0193010D03*
X0298000Y0183010D03*
X0298000Y0173010D03*
X0298000Y0163010D03*
X0273000Y0190510D03*
X0263000Y0190510D03*
X0253000Y0190510D03*
X0166750Y0183010D03*
X0156750Y0183010D03*
X0146750Y0183010D03*
X0119250Y0178010D03*
X0119250Y0168010D03*
X0108000Y0168010D03*
X0108000Y0158010D03*
X0108000Y0148010D03*
X0108000Y0138010D03*
X0108000Y0128010D03*
X0108000Y0178010D03*
X0108000Y0188010D03*
X0108000Y0198010D03*
X0108000Y0213010D03*
X0108000Y0223010D03*
X0108000Y0233010D03*
X0108000Y0243010D03*
X0108000Y0253010D03*
X0108000Y0263010D03*
X0108000Y0273010D03*
X0108000Y0283010D03*
X0148000Y0283010D03*
X0158000Y0283010D03*
X0168000Y0283010D03*
X0293000Y0093010D03*
X0293000Y0083010D03*
X0231750Y0086760D03*
X0221750Y0086760D03*
X0211750Y0086760D03*
X0211750Y0074260D03*
X0221750Y0074260D03*
X0231750Y0074260D03*
D19*
X0199043Y0106760D03*
X0191957Y0106760D03*
X0164043Y0166760D03*
X0156957Y0166760D03*
X0135293Y0226760D03*
X0128207Y0226760D03*
X0126543Y0283010D03*
X0119457Y0283010D03*
X0279457Y0284260D03*
X0286543Y0284260D03*
X0286543Y0274260D03*
X0279457Y0274260D03*
D20*
X0281750Y0140353D03*
D21*
X0272774Y0111612D03*
X0290726Y0111612D03*
D22*
X0265500Y0228010D03*
X0255500Y0228010D03*
X0185500Y0228010D03*
X0175500Y0228010D03*
D23*
X0152449Y0243010D03*
X0133551Y0243010D03*
X0217301Y0243010D03*
X0236199Y0243010D03*
D24*
X0100840Y0069791D02*
X0101234Y0069229D01*
X0101719Y0068744D01*
X0102281Y0068350D01*
X0102903Y0068060D01*
X0103566Y0067883D01*
X0104250Y0067823D01*
X0104934Y0067883D01*
X0105597Y0068060D01*
X0106219Y0068350D01*
X0106781Y0068744D01*
X0107266Y0069229D01*
X0107660Y0069791D01*
X0107950Y0070413D01*
X0108127Y0071076D01*
X0108187Y0071760D01*
X0108127Y0072444D01*
X0107950Y0073107D01*
X0107660Y0073729D01*
X0107266Y0074291D01*
X0106781Y0074776D01*
X0106219Y0075170D01*
X0105597Y0075460D01*
X0104934Y0075637D01*
X0104250Y0075697D01*
X0103566Y0075637D01*
X0102903Y0075460D01*
X0102281Y0075170D01*
X0101719Y0074776D01*
X0101234Y0074291D01*
X0100840Y0073729D01*
X0100550Y0073107D01*
X0100373Y0072444D01*
X0100313Y0071760D01*
X0100373Y0071076D01*
X0100550Y0070413D01*
X0100840Y0069791D01*
X0100832Y0069811D02*
X0107668Y0069811D01*
X0107901Y0070309D02*
X0100599Y0070309D01*
X0100445Y0070808D02*
X0108055Y0070808D01*
X0108147Y0071306D02*
X0100353Y0071306D01*
X0100317Y0071805D02*
X0108183Y0071805D01*
X0108139Y0072303D02*
X0100361Y0072303D01*
X0100469Y0072802D02*
X0108031Y0072802D01*
X0107859Y0073300D02*
X0100641Y0073300D01*
X0100890Y0073799D02*
X0107610Y0073799D01*
X0107259Y0074297D02*
X0101241Y0074297D01*
X0101747Y0074796D02*
X0106753Y0074796D01*
X0105951Y0075294D02*
X0102549Y0075294D01*
X0101176Y0069312D02*
X0107324Y0069312D01*
X0106850Y0068813D02*
X0101650Y0068813D01*
X0102358Y0068315D02*
X0106142Y0068315D01*
X0271563Y0071760D02*
X0271623Y0071076D01*
X0271800Y0070413D01*
X0272090Y0069791D01*
X0272484Y0069229D01*
X0272969Y0068744D01*
X0273531Y0068350D01*
X0274153Y0068060D01*
X0274816Y0067883D01*
X0275500Y0067823D01*
X0276184Y0067883D01*
X0276847Y0068060D01*
X0277469Y0068350D01*
X0278031Y0068744D01*
X0278516Y0069229D01*
X0278910Y0069791D01*
X0279200Y0070413D01*
X0279377Y0071076D01*
X0279437Y0071760D01*
X0279377Y0072444D01*
X0279200Y0073107D01*
X0278910Y0073729D01*
X0278516Y0074291D01*
X0278031Y0074776D01*
X0277469Y0075170D01*
X0276847Y0075460D01*
X0276184Y0075637D01*
X0275500Y0075697D01*
X0274816Y0075637D01*
X0274153Y0075460D01*
X0273531Y0075170D01*
X0272969Y0074776D01*
X0272484Y0074291D01*
X0272090Y0073729D01*
X0271800Y0073107D01*
X0271623Y0072444D01*
X0271563Y0071760D01*
X0271567Y0071805D02*
X0279433Y0071805D01*
X0279389Y0072303D02*
X0271611Y0072303D01*
X0271719Y0072802D02*
X0279281Y0072802D01*
X0279109Y0073300D02*
X0271891Y0073300D01*
X0272140Y0073799D02*
X0278860Y0073799D01*
X0278509Y0074297D02*
X0272491Y0074297D01*
X0272997Y0074796D02*
X0278003Y0074796D01*
X0277201Y0075294D02*
X0273799Y0075294D01*
X0271603Y0071306D02*
X0279397Y0071306D01*
X0279305Y0070808D02*
X0271695Y0070808D01*
X0271849Y0070309D02*
X0279151Y0070309D01*
X0278918Y0069811D02*
X0272082Y0069811D01*
X0272426Y0069312D02*
X0278574Y0069312D01*
X0278100Y0068813D02*
X0272900Y0068813D01*
X0273608Y0068315D02*
X0277392Y0068315D01*
X0184347Y0279310D02*
X0184969Y0279600D01*
X0185531Y0279994D01*
X0186016Y0280479D01*
X0186410Y0281041D01*
X0186700Y0281663D01*
X0186877Y0282326D01*
X0186937Y0283010D01*
X0186877Y0283694D01*
X0186700Y0284357D01*
X0186410Y0284979D01*
X0186016Y0285541D01*
X0185531Y0286026D01*
X0184969Y0286420D01*
X0184347Y0286710D01*
X0183684Y0286887D01*
X0183000Y0286947D01*
X0182316Y0286887D01*
X0181653Y0286710D01*
X0181031Y0286420D01*
X0180469Y0286026D01*
X0179984Y0285541D01*
X0179590Y0284979D01*
X0179300Y0284357D01*
X0179123Y0283694D01*
X0179063Y0283010D01*
X0179123Y0282326D01*
X0179300Y0281663D01*
X0179590Y0281041D01*
X0179984Y0280479D01*
X0180469Y0279994D01*
X0181031Y0279600D01*
X0181653Y0279310D01*
X0182316Y0279133D01*
X0183000Y0279073D01*
X0183684Y0279133D01*
X0184347Y0279310D01*
X0183879Y0279185D02*
X0182121Y0279185D01*
X0180912Y0279684D02*
X0185087Y0279684D01*
X0185719Y0280182D02*
X0180281Y0280182D01*
X0179843Y0280681D02*
X0186157Y0280681D01*
X0186474Y0281179D02*
X0179526Y0281179D01*
X0179297Y0281678D02*
X0186703Y0281678D01*
X0186837Y0282176D02*
X0179163Y0282176D01*
X0179092Y0282675D02*
X0186908Y0282675D01*
X0186923Y0283173D02*
X0179077Y0283173D01*
X0179121Y0283672D02*
X0186879Y0283672D01*
X0186749Y0284170D02*
X0179251Y0284170D01*
X0179446Y0284669D02*
X0186554Y0284669D01*
X0186277Y0285167D02*
X0179723Y0285167D01*
X0180109Y0285666D02*
X0185891Y0285666D01*
X0185333Y0286164D02*
X0180667Y0286164D01*
X0181553Y0286663D02*
X0184447Y0286663D01*
D25*
X0288000Y0202793D03*
X0288000Y0188227D03*
D26*
X0181278Y0154162D03*
X0181278Y0146288D03*
X0181278Y0138414D03*
X0181278Y0130540D03*
X0181278Y0122666D03*
X0181278Y0114791D03*
X0181278Y0106917D03*
X0181278Y0099043D03*
X0122222Y0099043D03*
X0122222Y0106917D03*
X0122222Y0114791D03*
X0122222Y0122666D03*
X0122222Y0130540D03*
X0122222Y0138414D03*
X0122222Y0146288D03*
X0122222Y0154162D03*
D27*
X0198000Y0146947D03*
X0198000Y0139073D03*
X0204063Y0174073D03*
X0211937Y0174073D03*
X0211937Y0181947D03*
X0204063Y0181947D03*
D28*
X0206750Y0158069D03*
X0206750Y0152951D03*
X0249250Y0079319D03*
X0249250Y0074201D03*
X0125500Y0186701D03*
X0125500Y0191819D03*
D29*
X0136750Y0166760D03*
X0144250Y0166760D03*
X0170500Y0170510D03*
X0181750Y0165510D03*
X0199250Y0161760D03*
X0206750Y0145510D03*
X0206750Y0136760D03*
X0206750Y0128010D03*
X0206750Y0119260D03*
X0220500Y0116760D03*
X0228000Y0116760D03*
X0251750Y0110510D03*
X0266750Y0133010D03*
X0266750Y0145510D03*
X0261750Y0148010D03*
X0261750Y0154260D03*
X0266750Y0151760D03*
X0266750Y0158010D03*
X0261750Y0160510D03*
X0266750Y0164260D03*
X0261750Y0166760D03*
X0261750Y0173010D03*
X0266750Y0170510D03*
X0273000Y0168010D03*
X0278000Y0168010D03*
X0278000Y0163010D03*
X0278000Y0158010D03*
X0273000Y0158010D03*
X0273000Y0163010D03*
X0283000Y0163010D03*
X0283000Y0158010D03*
X0288000Y0158010D03*
X0288000Y0163010D03*
X0288000Y0168010D03*
X0283000Y0168010D03*
X0283000Y0173010D03*
X0288000Y0173010D03*
X0278000Y0173010D03*
X0273000Y0173010D03*
X0296750Y0153010D03*
X0300500Y0149260D03*
X0296750Y0145510D03*
X0300500Y0141760D03*
X0296750Y0138010D03*
X0300500Y0134260D03*
X0296750Y0130510D03*
X0300500Y0126760D03*
X0296750Y0123010D03*
X0300500Y0119260D03*
X0296750Y0115510D03*
X0283000Y0103010D03*
X0283000Y0095510D03*
X0258000Y0076760D03*
X0238000Y0190510D03*
X0225500Y0190510D03*
X0278000Y0203010D03*
X0283000Y0248010D03*
X0201750Y0278010D03*
X0193000Y0278010D03*
X0113000Y0111760D03*
D30*
X0195500Y0174260D03*
X0220500Y0198010D03*
X0163000Y0233010D03*
D31*
X0183000Y0240510D03*
X0115500Y0290510D03*
X0189250Y0141760D03*
X0193000Y0114260D03*
X0273000Y0233010D03*
M02*
