%
M48
M72
T01C0.01969
T02C0.02362
T03C0.02400
T04C0.03543
T05C0.04000
%
T01
X189250Y141760
X193000Y114260
X273000Y233010
X183000Y240510
X115500Y290510
T02
X113000Y111760
X136750Y166760
X144250Y166760
X170500Y170510
X181750Y165510
X199250Y161760
X206750Y145510
X206750Y136760
X206750Y128010
X206750Y119260
X220500Y116760
X228000Y116760
X251750Y110510
X266750Y133010
X266750Y145510
X261750Y148010
X261750Y154260
X266750Y151760
X266750Y158010
X261750Y160510
X266750Y164260
X261750Y166760
X261750Y173010
X266750Y170510
X273000Y168010
X278000Y168010
X278000Y163010
X278000Y158010
X273000Y158010
X273000Y163010
X283000Y163010
X283000Y158010
X288000Y158010
X288000Y163010
X288000Y168010
X283000Y168010
X283000Y173010
X288000Y173010
X278000Y173010
X273000Y173010
X296750Y153010
X300500Y149260
X296750Y145510
X300500Y141760
X296750Y138010
X300500Y134260
X296750Y130510
X300500Y126760
X296750Y123010
X300500Y119260
X296750Y115510
X283000Y103010
X283000Y95510
X258000Y76760
X238000Y190510
X225500Y190510
X278000Y203010
X283000Y248010
X201750Y278010
X193000Y278010
T03
X163000Y233010
X220500Y198010
X195500Y174260
T04
X204063Y174073
X211937Y174073
X211937Y181947
X204063Y181947
X198000Y146947
X198000Y139073
T05
X166750Y183010
X156750Y183010
X146750Y183010
X136750Y183010
X119250Y178010
X119250Y168010
X108000Y168010
X108000Y158010
X108000Y148010
X108000Y138010
X108000Y128010
X108000Y178010
X108000Y188010
X108000Y198010
X108000Y213010
X108000Y223010
X108000Y233010
X108000Y243010
X108000Y253010
X108000Y263010
X108000Y273010
X108000Y283010
X123000Y263010
X133000Y263010
X143000Y263010
X153000Y263010
X163000Y263010
X173000Y263010
X183000Y263010
X193000Y263010
X213000Y263010
X223000Y263010
X233000Y263010
X243000Y263010
X253000Y263010
X263000Y263010
X273000Y263010
X283000Y263010
X298000Y263010
X298000Y253010
X298000Y243010
X298000Y233010
X298000Y213010
X298000Y203010
X298000Y193010
X298000Y183010
X298000Y173010
X298000Y163010
X273000Y190510
X263000Y190510
X253000Y190510
X253000Y213010
X243000Y213010
X233000Y213010
X223000Y213010
X213000Y213010
X193000Y213010
X183000Y213010
X173000Y213010
X163000Y213010
X153000Y213010
X143000Y213010
X133000Y213010
X123000Y213010
X138000Y283010
X148000Y283010
X158000Y283010
X168000Y283010
X238000Y283010
X248000Y283010
X258000Y283010
X268000Y283010
X298000Y283010
X298000Y273010
X283000Y213010
X273000Y213010
X263000Y213010
X293000Y93010
X293000Y83010
X231750Y86760
X221750Y86760
X211750Y86760
X211750Y74260
X221750Y74260
X231750Y74260
M30
