G75*
%MOIN*%
%OFA0B0*%
%FSLAX25Y25*%
%IPPOS*%
%LPD*%
%AMOC8*
5,1,8,0,0,1.08239X$1,22.5*
%
%ADD10C,0.00500*%
%ADD11C,0.01000*%
%ADD12C,0.00200*%
%ADD13C,0.01600*%
%ADD14C,0.00315*%
%ADD15C,0.00400*%
%ADD16C,0.00600*%
%ADD17C,0.00800*%
%ADD18C,0.00100*%
%ADD19R,0.03400X0.03000*%
%ADD20C,0.00300*%
%ADD21C,0.00700*%
D10*
X0120254Y0065579D02*
X0120254Y0160067D01*
X0183246Y0160067D01*
X0183246Y0065579D01*
X0120254Y0065579D01*
X0128128Y0096288D02*
X0128128Y0155343D01*
X0175372Y0155343D01*
X0175372Y0096288D01*
X0128128Y0096288D01*
X0206700Y0094961D02*
X0207451Y0094210D01*
X0208201Y0094210D01*
X0208952Y0094961D01*
X0208952Y0098714D01*
X0208201Y0098714D02*
X0209703Y0098714D01*
X0211304Y0098714D02*
X0213556Y0098714D01*
X0214306Y0097963D01*
X0214306Y0096462D01*
X0213556Y0095711D01*
X0211304Y0095711D01*
X0211304Y0094210D02*
X0211304Y0098714D01*
X0215908Y0096462D02*
X0218160Y0096462D01*
X0218910Y0095711D01*
X0218910Y0094961D01*
X0218160Y0094210D01*
X0216658Y0094210D01*
X0215908Y0094961D01*
X0215908Y0096462D01*
X0217409Y0097963D01*
X0218910Y0098714D01*
X0218250Y0095260D02*
X0218250Y0103260D01*
X0218910Y0086214D02*
X0215908Y0086214D01*
X0215908Y0083962D01*
X0217409Y0084713D01*
X0218160Y0084713D01*
X0218910Y0083962D01*
X0218910Y0082461D01*
X0218160Y0081710D01*
X0216658Y0081710D01*
X0215908Y0082461D01*
X0214306Y0083962D02*
X0213556Y0083211D01*
X0211304Y0083211D01*
X0211304Y0081710D02*
X0211304Y0086214D01*
X0213556Y0086214D01*
X0214306Y0085463D01*
X0214306Y0083962D01*
X0209703Y0086214D02*
X0208201Y0086214D01*
X0208952Y0086214D02*
X0208952Y0082461D01*
X0208201Y0081710D01*
X0207451Y0081710D01*
X0206700Y0082461D01*
X0239200Y0084961D02*
X0239951Y0084210D01*
X0241452Y0084210D01*
X0242203Y0084961D01*
X0242203Y0085711D01*
X0241452Y0086462D01*
X0239951Y0086462D01*
X0239200Y0087213D01*
X0239200Y0087963D01*
X0239951Y0088714D01*
X0241452Y0088714D01*
X0242203Y0087963D01*
X0243804Y0088714D02*
X0243804Y0084210D01*
X0246806Y0084210D01*
X0248408Y0084210D02*
X0248408Y0088714D01*
X0250660Y0088714D01*
X0251410Y0087963D01*
X0251410Y0086462D01*
X0250660Y0085711D01*
X0248408Y0085711D01*
X0249909Y0085711D02*
X0251410Y0084210D01*
X0253012Y0085711D02*
X0254513Y0084210D01*
X0256014Y0085711D01*
X0256014Y0088714D01*
X0257616Y0087963D02*
X0257616Y0084961D01*
X0258366Y0084210D01*
X0259868Y0084210D01*
X0260618Y0084961D01*
X0260618Y0087963D01*
X0259868Y0088714D01*
X0258366Y0088714D01*
X0257616Y0087963D01*
X0262220Y0087963D02*
X0262970Y0088714D01*
X0264472Y0088714D01*
X0265222Y0087963D01*
X0265222Y0087213D01*
X0262220Y0084210D01*
X0265222Y0084210D01*
X0263721Y0076214D02*
X0262220Y0074713D01*
X0260618Y0075463D02*
X0259868Y0076214D01*
X0258366Y0076214D01*
X0257616Y0075463D01*
X0257616Y0072461D01*
X0258366Y0071710D01*
X0259868Y0071710D01*
X0260618Y0072461D01*
X0260618Y0075463D01*
X0263721Y0076214D02*
X0263721Y0071710D01*
X0262220Y0071710D02*
X0265222Y0071710D01*
X0256014Y0073211D02*
X0256014Y0076214D01*
X0253012Y0076214D02*
X0253012Y0073211D01*
X0254513Y0071710D01*
X0256014Y0073211D01*
X0251410Y0073962D02*
X0251410Y0075463D01*
X0250660Y0076214D01*
X0248408Y0076214D01*
X0248408Y0071710D01*
X0248408Y0073211D02*
X0250660Y0073211D01*
X0251410Y0073962D01*
X0249909Y0073211D02*
X0251410Y0071710D01*
X0246806Y0071710D02*
X0243804Y0071710D01*
X0243804Y0076214D01*
X0246806Y0076214D01*
X0245305Y0073962D02*
X0243804Y0073962D01*
X0242203Y0073211D02*
X0242203Y0072461D01*
X0241452Y0071710D01*
X0239951Y0071710D01*
X0239200Y0072461D01*
X0239951Y0073962D02*
X0241452Y0073962D01*
X0242203Y0073211D01*
X0242203Y0075463D02*
X0241452Y0076214D01*
X0239951Y0076214D01*
X0239200Y0075463D01*
X0239200Y0074713D01*
X0239951Y0073962D01*
X0253012Y0085711D02*
X0253012Y0088714D01*
X0246806Y0088714D02*
X0243804Y0088714D01*
X0243804Y0086462D02*
X0245305Y0086462D01*
X0258250Y0097760D02*
X0258250Y0105760D01*
X0258250Y0122760D02*
X0250250Y0122760D01*
X0240750Y0120260D02*
X0232750Y0120260D01*
X0276602Y0090681D02*
X0281106Y0090681D01*
X0276602Y0087678D01*
X0281106Y0087678D01*
X0281072Y0087494D02*
X0276568Y0087494D01*
X0281072Y0090497D01*
X0276568Y0090497D01*
X0276602Y0086110D02*
X0276602Y0084609D01*
X0276568Y0084425D02*
X0276568Y0085926D01*
X0276602Y0085359D02*
X0281106Y0085359D01*
X0281072Y0085175D02*
X0276568Y0085175D01*
X0276602Y0083007D02*
X0279605Y0083007D01*
X0281106Y0081506D01*
X0279605Y0080005D01*
X0276602Y0080005D01*
X0276568Y0079821D02*
X0279571Y0079821D01*
X0281072Y0081322D01*
X0279571Y0082823D01*
X0276568Y0082823D01*
X0281072Y0084425D02*
X0281072Y0085926D01*
X0281106Y0086110D02*
X0281106Y0084609D01*
X0276949Y0178560D02*
X0275447Y0180061D01*
X0276198Y0180061D02*
X0273946Y0180061D01*
X0273946Y0178560D02*
X0273946Y0183064D01*
X0276198Y0183064D01*
X0276949Y0182313D01*
X0276949Y0180812D01*
X0276198Y0180061D01*
X0272345Y0179311D02*
X0272345Y0182313D01*
X0271594Y0183064D01*
X0270093Y0183064D01*
X0269342Y0182313D01*
X0269342Y0179311D01*
X0270093Y0178560D01*
X0271594Y0178560D01*
X0272345Y0179311D01*
X0267741Y0179311D02*
X0266990Y0178560D01*
X0265489Y0178560D01*
X0264738Y0179311D01*
X0265489Y0180812D02*
X0266990Y0180812D01*
X0267741Y0180061D01*
X0267741Y0179311D01*
X0265489Y0180812D02*
X0264738Y0181563D01*
X0264738Y0182313D01*
X0265489Y0183064D01*
X0266990Y0183064D01*
X0267741Y0182313D01*
X0263137Y0183064D02*
X0263137Y0178560D01*
X0260134Y0183064D01*
X0260134Y0178560D01*
X0258533Y0178560D02*
X0255530Y0178560D01*
X0255530Y0183064D01*
X0258533Y0183064D01*
X0257032Y0180812D02*
X0255530Y0180812D01*
X0253929Y0180061D02*
X0253929Y0179311D01*
X0253178Y0178560D01*
X0251677Y0178560D01*
X0250926Y0179311D01*
X0251677Y0180812D02*
X0250926Y0181563D01*
X0250926Y0182313D01*
X0251677Y0183064D01*
X0253178Y0183064D01*
X0253929Y0182313D01*
X0253178Y0180812D02*
X0253929Y0180061D01*
X0253178Y0180812D02*
X0251677Y0180812D01*
X0240176Y0181510D02*
X0237173Y0181510D01*
X0238674Y0181510D02*
X0238674Y0186014D01*
X0237173Y0184513D01*
X0235572Y0185263D02*
X0234821Y0186014D01*
X0233320Y0186014D01*
X0232569Y0185263D01*
X0232569Y0182261D01*
X0233320Y0181510D01*
X0234821Y0181510D01*
X0235572Y0182261D01*
X0231001Y0181510D02*
X0229500Y0181510D01*
X0230251Y0181510D02*
X0230251Y0186014D01*
X0231001Y0186014D02*
X0229500Y0186014D01*
X0219410Y0220460D02*
X0217908Y0220460D01*
X0217158Y0221211D01*
X0218659Y0222712D02*
X0219410Y0222712D01*
X0220160Y0221961D01*
X0220160Y0221211D01*
X0219410Y0220460D01*
X0219410Y0222712D02*
X0220160Y0223463D01*
X0220160Y0224213D01*
X0219410Y0224964D01*
X0217908Y0224964D01*
X0217158Y0224213D01*
X0215556Y0224213D02*
X0215556Y0222712D01*
X0214806Y0221961D01*
X0212554Y0221961D01*
X0212554Y0220460D02*
X0212554Y0224964D01*
X0214806Y0224964D01*
X0215556Y0224213D01*
X0210953Y0224964D02*
X0209451Y0224964D01*
X0210202Y0224964D02*
X0210202Y0221211D01*
X0209451Y0220460D01*
X0208701Y0220460D01*
X0207950Y0221211D01*
X0186960Y0235260D02*
X0183958Y0235260D01*
X0185459Y0235260D02*
X0185459Y0239764D01*
X0183958Y0238263D01*
X0182356Y0239764D02*
X0180855Y0239764D01*
X0181606Y0239764D02*
X0181606Y0236011D01*
X0180855Y0235260D01*
X0180105Y0235260D01*
X0179354Y0236011D01*
X0177753Y0236011D02*
X0177002Y0235260D01*
X0175501Y0235260D01*
X0174750Y0236011D01*
X0175501Y0237512D02*
X0177002Y0237512D01*
X0177753Y0236761D01*
X0177753Y0236011D01*
X0175501Y0237512D02*
X0174750Y0238263D01*
X0174750Y0239013D01*
X0175501Y0239764D01*
X0177002Y0239764D01*
X0177753Y0239013D01*
X0208701Y0270460D02*
X0209451Y0270460D01*
X0210202Y0271211D01*
X0210202Y0274964D01*
X0209451Y0274964D02*
X0210953Y0274964D01*
X0212554Y0274964D02*
X0214806Y0274964D01*
X0215556Y0274213D01*
X0215556Y0272712D01*
X0214806Y0271961D01*
X0212554Y0271961D01*
X0212554Y0270460D02*
X0212554Y0274964D01*
X0208701Y0270460D02*
X0207950Y0271211D01*
X0217158Y0272712D02*
X0220160Y0272712D01*
X0219410Y0270460D02*
X0219410Y0274964D01*
X0217158Y0272712D01*
X0234472Y0289204D02*
X0234472Y0293708D01*
X0235973Y0292207D01*
X0237475Y0293708D01*
X0237475Y0289204D01*
X0239076Y0289955D02*
X0239076Y0292957D01*
X0239827Y0293708D01*
X0241328Y0293708D01*
X0242078Y0292957D01*
X0242078Y0289955D01*
X0241328Y0289204D01*
X0239827Y0289204D01*
X0239076Y0289955D01*
X0243680Y0293708D02*
X0246682Y0293708D01*
X0245181Y0293708D02*
X0245181Y0289204D01*
X0248284Y0289955D02*
X0248284Y0292957D01*
X0249034Y0293708D01*
X0250536Y0293708D01*
X0251286Y0292957D01*
X0251286Y0289955D01*
X0250536Y0289204D01*
X0249034Y0289204D01*
X0248284Y0289955D01*
X0252888Y0290705D02*
X0255140Y0290705D01*
X0255890Y0291456D01*
X0255890Y0292957D01*
X0255140Y0293708D01*
X0252888Y0293708D01*
X0252888Y0289204D01*
X0254389Y0290705D02*
X0255890Y0289204D01*
X0257492Y0289204D02*
X0260494Y0292207D01*
X0260494Y0292957D01*
X0259744Y0293708D01*
X0258242Y0293708D01*
X0257492Y0292957D01*
X0257492Y0289204D02*
X0260494Y0289204D01*
X0260855Y0231014D02*
X0262356Y0231014D01*
X0261606Y0231014D02*
X0261606Y0227261D01*
X0260855Y0226510D01*
X0260105Y0226510D01*
X0259354Y0227261D01*
X0257753Y0227261D02*
X0257002Y0226510D01*
X0255501Y0226510D01*
X0254750Y0227261D01*
X0255501Y0228762D02*
X0257002Y0228762D01*
X0257753Y0228011D01*
X0257753Y0227261D01*
X0255501Y0228762D02*
X0254750Y0229513D01*
X0254750Y0230263D01*
X0255501Y0231014D01*
X0257002Y0231014D01*
X0257753Y0230263D01*
X0263958Y0230263D02*
X0264708Y0231014D01*
X0266210Y0231014D01*
X0266960Y0230263D01*
X0266960Y0229513D01*
X0263958Y0226510D01*
X0266960Y0226510D01*
X0285000Y0202510D02*
X0291000Y0202510D01*
X0291000Y0188510D01*
X0285000Y0188510D01*
X0285000Y0202510D01*
X0162722Y0289138D02*
X0159720Y0289138D01*
X0161221Y0289138D02*
X0161221Y0293642D01*
X0159720Y0292141D01*
X0158118Y0292891D02*
X0158118Y0291390D01*
X0157368Y0290639D01*
X0155116Y0290639D01*
X0156617Y0290639D02*
X0158118Y0289138D01*
X0155116Y0289138D02*
X0155116Y0293642D01*
X0157368Y0293642D01*
X0158118Y0292891D01*
X0153514Y0292891D02*
X0153514Y0289889D01*
X0152764Y0289138D01*
X0151262Y0289138D01*
X0150512Y0289889D01*
X0150512Y0292891D01*
X0151262Y0293642D01*
X0152764Y0293642D01*
X0153514Y0292891D01*
X0148910Y0293642D02*
X0145908Y0293642D01*
X0147409Y0293642D02*
X0147409Y0289138D01*
X0144306Y0289889D02*
X0144306Y0292891D01*
X0143556Y0293642D01*
X0142055Y0293642D01*
X0141304Y0292891D01*
X0141304Y0289889D01*
X0142055Y0289138D01*
X0143556Y0289138D01*
X0144306Y0289889D01*
X0139703Y0289138D02*
X0139703Y0293642D01*
X0138201Y0292141D01*
X0136700Y0293642D01*
X0136700Y0289138D01*
X0129410Y0274964D02*
X0127908Y0274964D01*
X0127158Y0274213D01*
X0125556Y0274213D02*
X0125556Y0272712D01*
X0124806Y0271961D01*
X0122554Y0271961D01*
X0122554Y0270460D02*
X0122554Y0274964D01*
X0124806Y0274964D01*
X0125556Y0274213D01*
X0129410Y0274964D02*
X0130160Y0274213D01*
X0130160Y0273463D01*
X0127158Y0270460D01*
X0130160Y0270460D01*
X0120953Y0274964D02*
X0119451Y0274964D01*
X0120202Y0274964D02*
X0120202Y0271211D01*
X0119451Y0270460D01*
X0118701Y0270460D01*
X0117950Y0271211D01*
X0119451Y0224964D02*
X0120953Y0224964D01*
X0120202Y0224964D02*
X0120202Y0221211D01*
X0119451Y0220460D01*
X0118701Y0220460D01*
X0117950Y0221211D01*
X0122554Y0221961D02*
X0124806Y0221961D01*
X0125556Y0222712D01*
X0125556Y0224213D01*
X0124806Y0224964D01*
X0122554Y0224964D01*
X0122554Y0220460D01*
X0127158Y0220460D02*
X0130160Y0220460D01*
X0128659Y0220460D02*
X0128659Y0224964D01*
X0127158Y0223463D01*
X0120449Y0195709D02*
X0121200Y0194958D01*
X0121200Y0193457D01*
X0120449Y0192706D01*
X0119699Y0192706D01*
X0118948Y0193457D01*
X0118948Y0194958D01*
X0119699Y0195709D01*
X0120449Y0195709D01*
X0118948Y0194958D02*
X0118197Y0195709D01*
X0117447Y0195709D01*
X0116696Y0194958D01*
X0116696Y0193457D01*
X0117447Y0192706D01*
X0118197Y0192706D01*
X0118948Y0193457D01*
X0118948Y0191105D02*
X0117447Y0191105D01*
X0116696Y0190354D01*
X0116696Y0188102D01*
X0121200Y0188102D01*
X0119699Y0188102D02*
X0119699Y0190354D01*
X0118948Y0191105D01*
X0116696Y0186501D02*
X0116696Y0184999D01*
X0116696Y0185750D02*
X0120449Y0185750D01*
X0121200Y0184999D01*
X0121200Y0184249D01*
X0120449Y0183498D01*
D11*
X0131750Y0188010D02*
X0131750Y0178010D01*
X0141750Y0178010D01*
X0141750Y0188010D01*
X0131750Y0188010D01*
X0206750Y0091760D02*
X0206750Y0081760D01*
X0216750Y0081760D01*
X0216750Y0091760D01*
X0206750Y0091760D01*
X0206750Y0079260D02*
X0206750Y0069260D01*
X0216750Y0069260D01*
X0216750Y0079260D01*
X0206750Y0079260D01*
X0288000Y0088010D02*
X0288000Y0098010D01*
X0298000Y0098010D01*
X0298000Y0088010D01*
X0288000Y0088010D01*
X0258000Y0185510D02*
X0248000Y0185510D01*
X0248000Y0195510D01*
X0258000Y0195510D01*
X0258000Y0185510D01*
D12*
X0255098Y0196782D02*
X0254016Y0196782D01*
X0254016Y0198946D01*
X0255098Y0198946D01*
X0255459Y0198585D01*
X0255459Y0197143D01*
X0255098Y0196782D01*
X0253284Y0196782D02*
X0253284Y0198946D01*
X0251841Y0198946D02*
X0253284Y0196782D01*
X0251841Y0196782D02*
X0251841Y0198946D01*
X0251109Y0198585D02*
X0250748Y0198946D01*
X0250027Y0198946D01*
X0249666Y0198585D01*
X0249666Y0197143D01*
X0250027Y0196782D01*
X0250748Y0196782D01*
X0251109Y0197143D01*
X0251109Y0197864D01*
X0250387Y0197864D01*
X0260444Y0197871D02*
X0262312Y0197871D01*
X0263206Y0197871D02*
X0264140Y0198338D01*
X0264608Y0198338D01*
X0265075Y0197871D01*
X0265075Y0196937D01*
X0264608Y0196470D01*
X0263673Y0196470D01*
X0263206Y0196937D01*
X0263206Y0197871D02*
X0263206Y0199272D01*
X0265075Y0199272D01*
X0267632Y0198661D02*
X0267632Y0198301D01*
X0267993Y0197940D01*
X0268714Y0197940D01*
X0269075Y0197579D01*
X0269075Y0197219D01*
X0268714Y0196858D01*
X0267993Y0196858D01*
X0267632Y0197219D01*
X0267632Y0198661D02*
X0267993Y0199022D01*
X0268714Y0199022D01*
X0269075Y0198661D01*
X0269807Y0199022D02*
X0270528Y0199022D01*
X0270168Y0199022D02*
X0270168Y0196858D01*
X0270528Y0196858D02*
X0269807Y0196858D01*
X0271257Y0197219D02*
X0271618Y0196858D01*
X0272339Y0196858D01*
X0272700Y0197219D01*
X0272700Y0197940D01*
X0271978Y0197940D01*
X0271257Y0198661D02*
X0271257Y0197219D01*
X0271257Y0198661D02*
X0271618Y0199022D01*
X0272339Y0199022D01*
X0272700Y0198661D01*
X0273432Y0199022D02*
X0274875Y0196858D01*
X0274875Y0199022D01*
X0275607Y0198301D02*
X0276329Y0199022D01*
X0277050Y0198301D01*
X0277050Y0196858D01*
X0277782Y0196858D02*
X0279225Y0196858D01*
X0277782Y0196858D02*
X0277782Y0199022D01*
X0277050Y0197940D02*
X0275607Y0197940D01*
X0275607Y0198301D02*
X0275607Y0196858D01*
X0273432Y0196858D02*
X0273432Y0199022D01*
X0261378Y0198805D02*
X0261378Y0196937D01*
X0170493Y0173110D02*
X0168625Y0173110D01*
X0168625Y0175912D01*
X0167731Y0175445D02*
X0167264Y0175912D01*
X0166329Y0175912D01*
X0165862Y0175445D01*
X0165862Y0173577D01*
X0166329Y0173110D01*
X0167264Y0173110D01*
X0167731Y0173577D01*
X0164968Y0173577D02*
X0164501Y0173110D01*
X0163567Y0173110D01*
X0163100Y0173577D01*
X0163567Y0174511D02*
X0164501Y0174511D01*
X0164968Y0174044D01*
X0164968Y0173577D01*
X0163567Y0174511D02*
X0163100Y0174978D01*
X0163100Y0175445D01*
X0163567Y0175912D01*
X0164501Y0175912D01*
X0164968Y0175445D01*
X0159243Y0174978D02*
X0159243Y0173110D01*
X0159243Y0174511D02*
X0157375Y0174511D01*
X0157375Y0174978D02*
X0158309Y0175912D01*
X0159243Y0174978D01*
X0157375Y0174978D02*
X0157375Y0173110D01*
X0156481Y0173577D02*
X0156481Y0175445D01*
X0156014Y0175912D01*
X0154612Y0175912D01*
X0154612Y0173110D01*
X0156014Y0173110D01*
X0156481Y0173577D01*
X0153718Y0173577D02*
X0153251Y0173110D01*
X0152317Y0173110D01*
X0151850Y0173577D01*
X0152317Y0174511D02*
X0153251Y0174511D01*
X0153718Y0174044D01*
X0153718Y0173577D01*
X0152317Y0174511D02*
X0151850Y0174978D01*
X0151850Y0175445D01*
X0152317Y0175912D01*
X0153251Y0175912D01*
X0153718Y0175445D01*
X0148981Y0175912D02*
X0147112Y0175912D01*
X0147112Y0174511D01*
X0148046Y0174978D01*
X0148514Y0174978D01*
X0148981Y0174511D01*
X0148981Y0173577D01*
X0148514Y0173110D01*
X0147579Y0173110D01*
X0147112Y0173577D01*
X0146218Y0174511D02*
X0144350Y0174511D01*
X0145284Y0175445D02*
X0145284Y0173577D01*
X0140493Y0173577D02*
X0140493Y0175445D01*
X0140026Y0175912D01*
X0138625Y0175912D01*
X0138625Y0173110D01*
X0140026Y0173110D01*
X0140493Y0173577D01*
X0137731Y0173110D02*
X0137731Y0175912D01*
X0135862Y0175912D02*
X0135862Y0173110D01*
X0134968Y0173577D02*
X0134968Y0174511D01*
X0134034Y0174511D01*
X0133100Y0173577D02*
X0133567Y0173110D01*
X0134501Y0173110D01*
X0134968Y0173577D01*
X0133100Y0173577D02*
X0133100Y0175445D01*
X0133567Y0175912D01*
X0134501Y0175912D01*
X0134968Y0175445D01*
X0135862Y0175912D02*
X0137731Y0173110D01*
X0195313Y0088026D02*
X0194952Y0087665D01*
X0194952Y0086223D01*
X0195313Y0085862D01*
X0196034Y0085862D01*
X0196395Y0086223D01*
X0196395Y0086944D01*
X0195673Y0086944D01*
X0196395Y0087665D02*
X0196034Y0088026D01*
X0195313Y0088026D01*
X0197127Y0088026D02*
X0198570Y0085862D01*
X0198570Y0088026D01*
X0199302Y0088026D02*
X0200384Y0088026D01*
X0200745Y0087665D01*
X0200745Y0086223D01*
X0200384Y0085862D01*
X0199302Y0085862D01*
X0199302Y0088026D01*
X0197127Y0088026D02*
X0197127Y0085862D01*
X0197127Y0075570D02*
X0198570Y0073406D01*
X0198570Y0075570D01*
X0199302Y0075570D02*
X0200384Y0075570D01*
X0200745Y0075209D01*
X0200745Y0073767D01*
X0200384Y0073406D01*
X0199302Y0073406D01*
X0199302Y0075570D01*
X0197127Y0075570D02*
X0197127Y0073406D01*
X0196395Y0073767D02*
X0196395Y0074488D01*
X0195673Y0074488D01*
X0194952Y0073767D02*
X0195313Y0073406D01*
X0196034Y0073406D01*
X0196395Y0073767D01*
X0196395Y0075209D02*
X0196034Y0075570D01*
X0195313Y0075570D01*
X0194952Y0075209D01*
X0194952Y0073767D01*
D13*
X0204250Y0080510D02*
X0269250Y0080510D01*
X0269250Y0094260D01*
X0204250Y0094260D01*
X0204250Y0080510D01*
X0204250Y0066760D01*
X0269250Y0066760D01*
X0269250Y0080510D01*
X0284250Y0070510D02*
X0284250Y0105510D01*
X0285500Y0105510D02*
X0300500Y0105510D01*
X0301750Y0105510D01*
X0301750Y0070510D01*
X0300500Y0070510D01*
X0300500Y0105510D01*
X0285500Y0105510D02*
X0285500Y0070510D01*
X0284250Y0070510D01*
X0285500Y0070510D02*
X0300500Y0070510D01*
X0249370Y0076760D02*
X0249130Y0076760D01*
X0206870Y0155510D02*
X0206630Y0155510D01*
X0175500Y0170510D02*
X0175500Y0202026D01*
X0129250Y0202026D01*
X0129250Y0170510D01*
X0175500Y0170510D01*
X0200500Y0206760D02*
X0115500Y0206760D01*
X0115500Y0208010D01*
X0200500Y0208010D01*
X0200500Y0206760D01*
X0200500Y0208010D02*
X0200500Y0268010D01*
X0200500Y0269260D01*
X0115500Y0269260D01*
X0115500Y0268010D01*
X0200500Y0268010D01*
X0206750Y0269260D02*
X0208000Y0269260D01*
X0208000Y0268010D01*
X0289250Y0268010D01*
X0289250Y0208010D01*
X0208000Y0208010D01*
X0208000Y0209260D01*
X0206750Y0206760D02*
X0206750Y0269260D01*
X0208000Y0269260D02*
X0289250Y0269260D01*
X0289250Y0268010D01*
X0275500Y0275510D02*
X0275500Y0295510D01*
X0230500Y0295510D01*
X0230500Y0275510D01*
X0275500Y0275510D01*
X0289250Y0208010D02*
X0289250Y0206760D01*
X0206750Y0206760D01*
X0245500Y0201760D02*
X0245500Y0176760D01*
X0281750Y0176760D01*
X0281750Y0201760D01*
X0245500Y0201760D01*
X0281750Y0176760D02*
X0281750Y0175510D01*
X0285500Y0179140D02*
X0285500Y0179380D01*
X0176750Y0275510D02*
X0176750Y0295510D01*
X0130500Y0295510D01*
X0130500Y0275510D01*
X0176750Y0275510D01*
X0115500Y0268010D02*
X0115500Y0208010D01*
X0125380Y0189260D02*
X0125620Y0189260D01*
D14*
X0179531Y0187272D02*
X0179587Y0187620D01*
X0179768Y0187699D01*
X0180315Y0187932D01*
X0180657Y0188140D01*
X0180786Y0188321D01*
X0180945Y0188539D01*
X0181005Y0188950D01*
X0180970Y0189549D01*
X0180950Y0189940D01*
X0180855Y0190930D01*
X0180684Y0192524D01*
X0180481Y0194420D01*
X0180168Y0196126D01*
X0179745Y0197641D01*
X0179731Y0197703D01*
X0179721Y0197754D01*
X0179717Y0197791D01*
X0179698Y0197971D01*
X0179788Y0198070D01*
X0179990Y0198091D01*
X0180706Y0198168D01*
X0181259Y0198250D01*
X0181647Y0198336D01*
X0182779Y0198592D01*
X0183397Y0198725D01*
X0183503Y0198736D01*
X0183654Y0198752D01*
X0183752Y0198670D01*
X0183790Y0198485D01*
X0183872Y0198144D01*
X0184044Y0196743D01*
X0184309Y0194278D01*
X0184711Y0190530D01*
X0184871Y0189042D01*
X0184737Y0187898D01*
X0184307Y0187097D01*
X0183830Y0186210D01*
X0182913Y0185543D01*
X0181556Y0185100D01*
X0181150Y0184971D01*
X0180710Y0184879D01*
X0180228Y0184827D01*
X0179942Y0184797D01*
X0179732Y0185402D01*
X0179599Y0186644D01*
X0179531Y0187272D01*
X0184746Y0185082D02*
X0184954Y0185147D01*
X0185580Y0185338D01*
X0185978Y0185525D01*
X0186141Y0185708D01*
X0186340Y0185928D01*
X0186454Y0186371D01*
X0186486Y0187030D01*
X0186511Y0187461D01*
X0186523Y0188554D01*
X0186523Y0192417D01*
X0186381Y0194320D01*
X0186096Y0196027D01*
X0186088Y0196097D01*
X0186084Y0196153D01*
X0186084Y0196393D01*
X0186194Y0196491D01*
X0187210Y0196491D01*
X0187824Y0196515D01*
X0188259Y0196564D01*
X0189528Y0196710D01*
X0190219Y0196784D01*
X0190503Y0196784D01*
X0190601Y0196682D01*
X0190621Y0196475D01*
X0190670Y0196092D01*
X0190695Y0194539D01*
X0190695Y0186017D01*
X0190414Y0184781D01*
X0189849Y0183956D01*
X0189223Y0183041D01*
X0188141Y0182419D01*
X0186604Y0182094D01*
X0186145Y0182000D01*
X0185653Y0181952D01*
X0184803Y0181952D01*
X0184645Y0182639D01*
X0184645Y0184708D01*
X0184746Y0185082D01*
X0193065Y0188143D02*
X0193065Y0192871D01*
X0194800Y0192871D01*
X0194800Y0192010D01*
X0194925Y0192352D01*
X0195104Y0192601D01*
X0195337Y0192758D01*
X0195570Y0192917D01*
X0195882Y0192996D01*
X0196440Y0192996D01*
X0196440Y0191121D01*
X0196370Y0191127D01*
X0196304Y0191133D01*
X0196240Y0191138D01*
X0196176Y0191142D01*
X0196115Y0191144D01*
X0195677Y0191144D01*
X0195398Y0191058D01*
X0195220Y0190887D01*
X0195042Y0190716D01*
X0194953Y0190448D01*
X0194953Y0188143D01*
X0193065Y0188143D01*
X0196730Y0189725D02*
X0196730Y0191296D01*
X0196967Y0191914D01*
X0197442Y0192363D01*
X0197918Y0192815D01*
X0198571Y0193040D01*
X0200235Y0193040D01*
X0200888Y0192815D01*
X0201361Y0192363D01*
X0201835Y0191914D01*
X0202072Y0191296D01*
X0202072Y0189725D01*
X0201835Y0189105D01*
X0201360Y0188652D01*
X0200884Y0188199D01*
X0200232Y0187974D01*
X0198574Y0187974D01*
X0197921Y0188199D01*
X0197445Y0188652D01*
X0196969Y0189105D01*
X0196730Y0189725D01*
X0198626Y0190075D02*
X0198626Y0190948D01*
X0198687Y0191261D01*
X0198807Y0191449D01*
X0198928Y0191638D01*
X0199125Y0191731D01*
X0199677Y0191731D01*
X0199876Y0191636D01*
X0199999Y0191446D01*
X0200122Y0191256D01*
X0200185Y0190946D01*
X0200185Y0190078D01*
X0200122Y0189765D01*
X0199999Y0189572D01*
X0199876Y0189379D01*
X0199677Y0189283D01*
X0199125Y0189283D01*
X0198928Y0189378D01*
X0198807Y0189569D01*
X0198687Y0189761D01*
X0198626Y0190075D01*
X0202693Y0188143D02*
X0204358Y0188143D01*
X0204358Y0188720D01*
X0204561Y0188468D01*
X0204790Y0188281D01*
X0205045Y0188158D01*
X0205300Y0188035D01*
X0205587Y0187974D01*
X0206516Y0187974D01*
X0207005Y0188204D01*
X0207378Y0188662D01*
X0207750Y0189122D01*
X0207937Y0189731D01*
X0207937Y0191249D01*
X0207749Y0191859D01*
X0207373Y0192317D01*
X0206998Y0192776D01*
X0206501Y0193005D01*
X0205619Y0193005D01*
X0205374Y0192951D01*
X0205147Y0192846D01*
X0204919Y0192740D01*
X0204713Y0192583D01*
X0204527Y0192374D01*
X0204527Y0194545D01*
X0202693Y0194545D01*
X0202693Y0188143D01*
X0204714Y0189652D02*
X0204851Y0189459D01*
X0205041Y0189363D01*
X0205524Y0189363D01*
X0205713Y0189459D01*
X0205848Y0189651D01*
X0205983Y0189842D01*
X0206050Y0190111D01*
X0206050Y0190830D01*
X0205987Y0191106D01*
X0205863Y0191286D01*
X0205738Y0191464D01*
X0205545Y0191553D01*
X0205020Y0191553D01*
X0204825Y0191463D01*
X0204699Y0191283D01*
X0204573Y0191104D01*
X0204509Y0190827D01*
X0204509Y0190114D01*
X0204578Y0189845D01*
X0204714Y0189652D01*
X0208315Y0189725D02*
X0208315Y0191296D01*
X0208552Y0191914D01*
X0209027Y0192363D01*
X0209503Y0192815D01*
X0210156Y0193040D01*
X0211820Y0193040D01*
X0212473Y0192815D01*
X0212946Y0192363D01*
X0213420Y0191914D01*
X0213657Y0191296D01*
X0213657Y0189725D01*
X0213420Y0189105D01*
X0212945Y0188652D01*
X0212468Y0188199D01*
X0211817Y0187974D01*
X0210159Y0187974D01*
X0209506Y0188199D01*
X0209030Y0188652D01*
X0208554Y0189105D01*
X0208315Y0189725D01*
X0210211Y0190075D02*
X0210272Y0189761D01*
X0210392Y0189569D01*
X0210512Y0189378D01*
X0210710Y0189283D01*
X0211262Y0189283D01*
X0211461Y0189379D01*
X0211584Y0189572D01*
X0211707Y0189765D01*
X0211769Y0190078D01*
X0211769Y0190946D01*
X0211707Y0191256D01*
X0211584Y0191446D01*
X0211461Y0191636D01*
X0211262Y0191731D01*
X0210710Y0191731D01*
X0210512Y0191638D01*
X0210392Y0191449D01*
X0210272Y0191261D01*
X0210211Y0190948D01*
X0210211Y0190075D01*
X0213913Y0191785D02*
X0213913Y0192871D01*
X0214581Y0192871D01*
X0214581Y0194331D01*
X0216450Y0194331D01*
X0216450Y0192871D01*
X0217332Y0192871D01*
X0217332Y0191785D01*
X0216450Y0191785D01*
X0216450Y0189735D01*
X0216496Y0189624D01*
X0216590Y0189559D01*
X0216682Y0189493D01*
X0216847Y0189461D01*
X0217207Y0189461D01*
X0217243Y0189462D01*
X0217280Y0189464D01*
X0217316Y0189467D01*
X0217350Y0189470D01*
X0217350Y0188107D01*
X0217118Y0188092D01*
X0216907Y0188082D01*
X0216717Y0188075D01*
X0216528Y0188067D01*
X0216349Y0188063D01*
X0215588Y0188063D01*
X0215171Y0188164D01*
X0214935Y0188364D01*
X0214699Y0188564D01*
X0214581Y0188915D01*
X0214581Y0191785D01*
X0213913Y0191785D01*
X0217846Y0191991D02*
X0218043Y0192377D01*
X0218439Y0192642D01*
X0218834Y0192908D01*
X0219413Y0193040D01*
X0220876Y0193040D01*
X0221422Y0192915D01*
X0221808Y0192666D01*
X0222195Y0192417D01*
X0222418Y0192046D01*
X0222476Y0191553D01*
X0220784Y0191553D01*
X0220769Y0191694D01*
X0220708Y0191807D01*
X0220600Y0191890D01*
X0220490Y0191975D01*
X0220354Y0192016D01*
X0220023Y0192016D01*
X0219897Y0191988D01*
X0219810Y0191932D01*
X0219723Y0191875D01*
X0219680Y0191794D01*
X0219680Y0191498D01*
X0219894Y0191360D01*
X0220320Y0191270D01*
X0220432Y0191247D01*
X0220517Y0191230D01*
X0220575Y0191218D01*
X0221433Y0191020D01*
X0221991Y0190811D01*
X0222249Y0190590D01*
X0222507Y0190367D01*
X0222636Y0190042D01*
X0222636Y0189070D01*
X0222425Y0188662D01*
X0222004Y0188386D01*
X0221582Y0188112D01*
X0220959Y0187974D01*
X0219368Y0187974D01*
X0218785Y0188112D01*
X0218384Y0188386D01*
X0217982Y0188662D01*
X0217761Y0189076D01*
X0217721Y0189630D01*
X0219546Y0189630D01*
X0219546Y0189430D01*
X0219598Y0189280D01*
X0219701Y0189182D01*
X0219803Y0189082D01*
X0219957Y0189033D01*
X0220360Y0189033D01*
X0220511Y0189066D01*
X0220616Y0189133D01*
X0220722Y0189200D01*
X0220775Y0189297D01*
X0220775Y0189637D01*
X0220542Y0189793D01*
X0220075Y0189896D01*
X0220035Y0189904D01*
X0220003Y0189912D01*
X0219980Y0189918D01*
X0219097Y0190106D01*
X0218519Y0190308D01*
X0218249Y0190526D01*
X0217981Y0190743D01*
X0217846Y0191062D01*
X0217846Y0191991D01*
X0191642Y0198502D02*
X0191864Y0199604D01*
X0191360Y0200644D01*
X0190132Y0201588D01*
X0188810Y0201996D01*
X0187394Y0201746D01*
X0187300Y0201682D02*
X0186450Y0201148D01*
X0186104Y0200454D01*
X0185978Y0199448D01*
X0186292Y0198502D01*
X0187740Y0197968D01*
X0190006Y0197654D01*
X0191580Y0198440D01*
X0189172Y0199722D02*
X0188932Y0199525D01*
X0188623Y0199498D01*
X0188616Y0199897D01*
X0188744Y0200332D01*
X0189007Y0200803D01*
X0189252Y0200612D01*
X0189347Y0200317D01*
X0189260Y0200020D01*
X0189172Y0199722D01*
X0188004Y0200083D02*
X0188065Y0200290D01*
X0188126Y0200498D01*
X0188038Y0200694D01*
X0187843Y0200787D01*
X0187683Y0200501D01*
X0187605Y0200236D01*
X0187609Y0199993D01*
X0187823Y0199966D01*
X0188004Y0200083D01*
X0189673Y0201329D02*
X0189853Y0202073D01*
X0190126Y0202712D01*
X0190491Y0203248D01*
X0190521Y0203230D02*
X0190156Y0202695D01*
X0189883Y0202055D01*
X0189703Y0201311D01*
X0189733Y0201293D02*
X0189913Y0202037D01*
X0190186Y0202677D01*
X0190551Y0203212D01*
X0190577Y0203188D02*
X0190211Y0202652D01*
X0189939Y0202012D01*
X0189758Y0201268D01*
X0189787Y0201269D02*
X0189967Y0202013D01*
X0190239Y0202653D01*
X0190605Y0203189D01*
X0190635Y0203188D02*
X0190269Y0202652D01*
X0189996Y0202012D01*
X0189816Y0201268D01*
X0190806Y0202834D02*
X0190459Y0203049D01*
X0190112Y0203264D01*
X0189951Y0203613D01*
X0190100Y0203828D01*
X0190248Y0204043D01*
X0190650Y0204044D01*
X0190997Y0203829D01*
X0191344Y0203614D01*
X0191505Y0203266D01*
X0191356Y0203050D01*
X0191208Y0202835D01*
X0190806Y0202834D01*
X0183583Y0201874D02*
X0183643Y0201315D01*
X0183772Y0200110D01*
X0183128Y0199432D01*
X0181706Y0199279D01*
X0181092Y0199213D01*
X0180584Y0199307D01*
X0180170Y0199560D01*
X0179713Y0199838D01*
X0179451Y0200271D01*
X0179388Y0200859D01*
X0179329Y0201410D01*
X0179501Y0201885D01*
X0179900Y0202285D01*
X0180274Y0202645D01*
X0180746Y0202855D01*
X0181315Y0202916D01*
X0181881Y0202977D01*
X0182387Y0202872D01*
X0182828Y0202599D01*
X0183310Y0202302D01*
X0183583Y0201874D01*
D15*
X0201822Y0167814D02*
X0204891Y0163210D01*
X0206426Y0163210D02*
X0209495Y0166279D01*
X0209495Y0167047D01*
X0208728Y0167814D01*
X0207193Y0167814D01*
X0206426Y0167047D01*
X0204891Y0167814D02*
X0201822Y0163210D01*
X0206426Y0163210D02*
X0209495Y0163210D01*
X0223354Y0188240D02*
X0224075Y0188240D01*
X0224075Y0188961D01*
X0223354Y0188961D01*
X0223354Y0188240D01*
X0225529Y0188961D02*
X0226250Y0188240D01*
X0228414Y0188240D01*
X0229879Y0188961D02*
X0229879Y0190404D01*
X0230601Y0191125D01*
X0232043Y0191125D01*
X0232765Y0190404D01*
X0232765Y0188961D01*
X0232043Y0188240D01*
X0230601Y0188240D01*
X0229879Y0188961D01*
X0228414Y0191125D02*
X0226250Y0191125D01*
X0225529Y0190404D01*
X0225529Y0188961D01*
X0234229Y0188240D02*
X0234229Y0191125D01*
X0234951Y0191125D01*
X0235672Y0190404D01*
X0236393Y0191125D01*
X0237115Y0190404D01*
X0237115Y0188240D01*
X0235672Y0188240D02*
X0235672Y0190404D01*
X0239545Y0230215D02*
X0220648Y0230215D01*
X0213955Y0236908D01*
X0213955Y0239270D01*
X0213955Y0246750D02*
X0213955Y0249112D01*
X0220648Y0255805D01*
X0239545Y0255805D01*
X0239545Y0246750D01*
X0239545Y0239270D02*
X0239545Y0230215D01*
X0238365Y0246750D02*
X0238270Y0247033D01*
X0238168Y0247314D01*
X0238059Y0247591D01*
X0237944Y0247867D01*
X0237822Y0248139D01*
X0237693Y0248408D01*
X0237558Y0248674D01*
X0237416Y0248936D01*
X0237268Y0249195D01*
X0237114Y0249451D01*
X0236953Y0249702D01*
X0236786Y0249950D01*
X0236614Y0250193D01*
X0236435Y0250432D01*
X0236251Y0250667D01*
X0236061Y0250897D01*
X0235865Y0251122D01*
X0235664Y0251342D01*
X0235458Y0251558D01*
X0235246Y0251768D01*
X0235030Y0251973D01*
X0234808Y0252173D01*
X0234581Y0252367D01*
X0234350Y0252556D01*
X0234115Y0252739D01*
X0233875Y0252916D01*
X0233630Y0253087D01*
X0233382Y0253252D01*
X0233129Y0253411D01*
X0232873Y0253564D01*
X0232613Y0253711D01*
X0232350Y0253851D01*
X0232083Y0253985D01*
X0231813Y0254112D01*
X0231540Y0254232D01*
X0231265Y0254346D01*
X0230986Y0254453D01*
X0230705Y0254553D01*
X0230422Y0254646D01*
X0230136Y0254733D01*
X0229848Y0254812D01*
X0229559Y0254884D01*
X0229268Y0254949D01*
X0228975Y0255007D01*
X0228681Y0255058D01*
X0228386Y0255102D01*
X0228090Y0255138D01*
X0227793Y0255167D01*
X0227495Y0255189D01*
X0227197Y0255204D01*
X0226899Y0255211D01*
X0226601Y0255211D01*
X0226303Y0255204D01*
X0226005Y0255189D01*
X0225707Y0255167D01*
X0225410Y0255138D01*
X0225114Y0255102D01*
X0224819Y0255058D01*
X0224525Y0255007D01*
X0224232Y0254949D01*
X0223941Y0254884D01*
X0223652Y0254812D01*
X0223364Y0254733D01*
X0223078Y0254646D01*
X0222795Y0254553D01*
X0222514Y0254453D01*
X0222235Y0254346D01*
X0221960Y0254232D01*
X0221687Y0254112D01*
X0221417Y0253985D01*
X0221150Y0253851D01*
X0220887Y0253711D01*
X0220627Y0253564D01*
X0220371Y0253411D01*
X0220118Y0253252D01*
X0219870Y0253087D01*
X0219625Y0252916D01*
X0219385Y0252739D01*
X0219150Y0252556D01*
X0218919Y0252367D01*
X0218692Y0252173D01*
X0218470Y0251973D01*
X0218254Y0251768D01*
X0218042Y0251558D01*
X0217836Y0251342D01*
X0217635Y0251122D01*
X0217439Y0250897D01*
X0217249Y0250667D01*
X0217065Y0250432D01*
X0216886Y0250193D01*
X0216714Y0249950D01*
X0216547Y0249702D01*
X0216386Y0249451D01*
X0216232Y0249195D01*
X0216084Y0248936D01*
X0215942Y0248674D01*
X0215807Y0248408D01*
X0215678Y0248139D01*
X0215556Y0247867D01*
X0215441Y0247591D01*
X0215332Y0247314D01*
X0215230Y0247033D01*
X0215135Y0246750D01*
X0215135Y0239270D02*
X0215230Y0238987D01*
X0215332Y0238706D01*
X0215441Y0238429D01*
X0215556Y0238153D01*
X0215678Y0237881D01*
X0215807Y0237612D01*
X0215942Y0237346D01*
X0216084Y0237084D01*
X0216232Y0236825D01*
X0216386Y0236569D01*
X0216547Y0236318D01*
X0216714Y0236070D01*
X0216886Y0235827D01*
X0217065Y0235588D01*
X0217249Y0235353D01*
X0217439Y0235123D01*
X0217635Y0234898D01*
X0217836Y0234678D01*
X0218042Y0234462D01*
X0218254Y0234252D01*
X0218470Y0234047D01*
X0218692Y0233847D01*
X0218919Y0233653D01*
X0219150Y0233464D01*
X0219385Y0233281D01*
X0219625Y0233104D01*
X0219870Y0232933D01*
X0220118Y0232768D01*
X0220371Y0232609D01*
X0220627Y0232456D01*
X0220887Y0232309D01*
X0221150Y0232169D01*
X0221417Y0232035D01*
X0221687Y0231908D01*
X0221960Y0231788D01*
X0222235Y0231674D01*
X0222514Y0231567D01*
X0222795Y0231467D01*
X0223078Y0231374D01*
X0223364Y0231287D01*
X0223652Y0231208D01*
X0223941Y0231136D01*
X0224232Y0231071D01*
X0224525Y0231013D01*
X0224819Y0230962D01*
X0225114Y0230918D01*
X0225410Y0230882D01*
X0225707Y0230853D01*
X0226005Y0230831D01*
X0226303Y0230816D01*
X0226601Y0230809D01*
X0226899Y0230809D01*
X0227197Y0230816D01*
X0227495Y0230831D01*
X0227793Y0230853D01*
X0228090Y0230882D01*
X0228386Y0230918D01*
X0228681Y0230962D01*
X0228975Y0231013D01*
X0229268Y0231071D01*
X0229559Y0231136D01*
X0229848Y0231208D01*
X0230136Y0231287D01*
X0230422Y0231374D01*
X0230705Y0231467D01*
X0230986Y0231567D01*
X0231265Y0231674D01*
X0231540Y0231788D01*
X0231813Y0231908D01*
X0232083Y0232035D01*
X0232350Y0232169D01*
X0232613Y0232309D01*
X0232873Y0232456D01*
X0233129Y0232609D01*
X0233382Y0232768D01*
X0233630Y0232933D01*
X0233875Y0233104D01*
X0234115Y0233281D01*
X0234350Y0233464D01*
X0234581Y0233653D01*
X0234808Y0233847D01*
X0235030Y0234047D01*
X0235246Y0234252D01*
X0235458Y0234462D01*
X0235664Y0234678D01*
X0235865Y0234898D01*
X0236061Y0235123D01*
X0236251Y0235353D01*
X0236435Y0235588D01*
X0236614Y0235827D01*
X0236786Y0236070D01*
X0236953Y0236318D01*
X0237114Y0236569D01*
X0237268Y0236825D01*
X0237416Y0237084D01*
X0237558Y0237346D01*
X0237693Y0237612D01*
X0237822Y0237881D01*
X0237944Y0238153D01*
X0238059Y0238429D01*
X0238168Y0238706D01*
X0238270Y0238987D01*
X0238365Y0239270D01*
X0155795Y0239270D02*
X0155795Y0236908D01*
X0149102Y0230215D01*
X0130205Y0230215D01*
X0130205Y0239270D01*
X0130205Y0246750D02*
X0130205Y0255805D01*
X0149102Y0255805D01*
X0155795Y0249112D01*
X0155795Y0246750D01*
X0154615Y0239270D02*
X0154520Y0238987D01*
X0154418Y0238706D01*
X0154309Y0238429D01*
X0154194Y0238153D01*
X0154072Y0237881D01*
X0153943Y0237612D01*
X0153808Y0237346D01*
X0153666Y0237084D01*
X0153518Y0236825D01*
X0153364Y0236569D01*
X0153203Y0236318D01*
X0153036Y0236070D01*
X0152864Y0235827D01*
X0152685Y0235588D01*
X0152501Y0235353D01*
X0152311Y0235123D01*
X0152115Y0234898D01*
X0151914Y0234678D01*
X0151708Y0234462D01*
X0151496Y0234252D01*
X0151280Y0234047D01*
X0151058Y0233847D01*
X0150831Y0233653D01*
X0150600Y0233464D01*
X0150365Y0233281D01*
X0150125Y0233104D01*
X0149880Y0232933D01*
X0149632Y0232768D01*
X0149379Y0232609D01*
X0149123Y0232456D01*
X0148863Y0232309D01*
X0148600Y0232169D01*
X0148333Y0232035D01*
X0148063Y0231908D01*
X0147790Y0231788D01*
X0147515Y0231674D01*
X0147236Y0231567D01*
X0146955Y0231467D01*
X0146672Y0231374D01*
X0146386Y0231287D01*
X0146098Y0231208D01*
X0145809Y0231136D01*
X0145518Y0231071D01*
X0145225Y0231013D01*
X0144931Y0230962D01*
X0144636Y0230918D01*
X0144340Y0230882D01*
X0144043Y0230853D01*
X0143745Y0230831D01*
X0143447Y0230816D01*
X0143149Y0230809D01*
X0142851Y0230809D01*
X0142553Y0230816D01*
X0142255Y0230831D01*
X0141957Y0230853D01*
X0141660Y0230882D01*
X0141364Y0230918D01*
X0141069Y0230962D01*
X0140775Y0231013D01*
X0140482Y0231071D01*
X0140191Y0231136D01*
X0139902Y0231208D01*
X0139614Y0231287D01*
X0139328Y0231374D01*
X0139045Y0231467D01*
X0138764Y0231567D01*
X0138485Y0231674D01*
X0138210Y0231788D01*
X0137937Y0231908D01*
X0137667Y0232035D01*
X0137400Y0232169D01*
X0137137Y0232309D01*
X0136877Y0232456D01*
X0136621Y0232609D01*
X0136368Y0232768D01*
X0136120Y0232933D01*
X0135875Y0233104D01*
X0135635Y0233281D01*
X0135400Y0233464D01*
X0135169Y0233653D01*
X0134942Y0233847D01*
X0134720Y0234047D01*
X0134504Y0234252D01*
X0134292Y0234462D01*
X0134086Y0234678D01*
X0133885Y0234898D01*
X0133689Y0235123D01*
X0133499Y0235353D01*
X0133315Y0235588D01*
X0133136Y0235827D01*
X0132964Y0236070D01*
X0132797Y0236318D01*
X0132636Y0236569D01*
X0132482Y0236825D01*
X0132334Y0237084D01*
X0132192Y0237346D01*
X0132057Y0237612D01*
X0131928Y0237881D01*
X0131806Y0238153D01*
X0131691Y0238429D01*
X0131582Y0238706D01*
X0131480Y0238987D01*
X0131385Y0239270D01*
X0131385Y0246750D02*
X0131480Y0247033D01*
X0131582Y0247314D01*
X0131691Y0247591D01*
X0131806Y0247867D01*
X0131928Y0248139D01*
X0132057Y0248408D01*
X0132192Y0248674D01*
X0132334Y0248936D01*
X0132482Y0249195D01*
X0132636Y0249451D01*
X0132797Y0249702D01*
X0132964Y0249950D01*
X0133136Y0250193D01*
X0133315Y0250432D01*
X0133499Y0250667D01*
X0133689Y0250897D01*
X0133885Y0251122D01*
X0134086Y0251342D01*
X0134292Y0251558D01*
X0134504Y0251768D01*
X0134720Y0251973D01*
X0134942Y0252173D01*
X0135169Y0252367D01*
X0135400Y0252556D01*
X0135635Y0252739D01*
X0135875Y0252916D01*
X0136120Y0253087D01*
X0136368Y0253252D01*
X0136621Y0253411D01*
X0136877Y0253564D01*
X0137137Y0253711D01*
X0137400Y0253851D01*
X0137667Y0253985D01*
X0137937Y0254112D01*
X0138210Y0254232D01*
X0138485Y0254346D01*
X0138764Y0254453D01*
X0139045Y0254553D01*
X0139328Y0254646D01*
X0139614Y0254733D01*
X0139902Y0254812D01*
X0140191Y0254884D01*
X0140482Y0254949D01*
X0140775Y0255007D01*
X0141069Y0255058D01*
X0141364Y0255102D01*
X0141660Y0255138D01*
X0141957Y0255167D01*
X0142255Y0255189D01*
X0142553Y0255204D01*
X0142851Y0255211D01*
X0143149Y0255211D01*
X0143447Y0255204D01*
X0143745Y0255189D01*
X0144043Y0255167D01*
X0144340Y0255138D01*
X0144636Y0255102D01*
X0144931Y0255058D01*
X0145225Y0255007D01*
X0145518Y0254949D01*
X0145809Y0254884D01*
X0146098Y0254812D01*
X0146386Y0254733D01*
X0146672Y0254646D01*
X0146955Y0254553D01*
X0147236Y0254453D01*
X0147515Y0254346D01*
X0147790Y0254232D01*
X0148063Y0254112D01*
X0148333Y0253985D01*
X0148600Y0253851D01*
X0148863Y0253711D01*
X0149123Y0253564D01*
X0149379Y0253411D01*
X0149632Y0253252D01*
X0149880Y0253087D01*
X0150125Y0252916D01*
X0150365Y0252739D01*
X0150600Y0252556D01*
X0150831Y0252367D01*
X0151058Y0252173D01*
X0151280Y0251973D01*
X0151496Y0251768D01*
X0151708Y0251558D01*
X0151914Y0251342D01*
X0152115Y0251122D01*
X0152311Y0250897D01*
X0152501Y0250667D01*
X0152685Y0250432D01*
X0152864Y0250193D01*
X0153036Y0249950D01*
X0153203Y0249702D01*
X0153364Y0249451D01*
X0153518Y0249195D01*
X0153666Y0248936D01*
X0153808Y0248674D01*
X0153943Y0248408D01*
X0154072Y0248139D01*
X0154194Y0247867D01*
X0154309Y0247591D01*
X0154418Y0247314D01*
X0154520Y0247033D01*
X0154615Y0246750D01*
X0195759Y0132814D02*
X0198828Y0128210D01*
X0200363Y0128977D02*
X0201130Y0128210D01*
X0202665Y0128210D01*
X0203432Y0128977D01*
X0203432Y0129745D01*
X0202665Y0130512D01*
X0201898Y0130512D01*
X0202665Y0130512D02*
X0203432Y0131279D01*
X0203432Y0132047D01*
X0202665Y0132814D01*
X0201130Y0132814D01*
X0200363Y0132047D01*
X0198828Y0132814D02*
X0195759Y0128210D01*
X0261946Y0129151D02*
X0262713Y0128383D01*
X0261946Y0129151D02*
X0261946Y0130685D01*
X0262713Y0131452D01*
X0263481Y0131452D01*
X0266550Y0128383D01*
X0266550Y0131452D01*
X0265783Y0126849D02*
X0266550Y0126081D01*
X0266550Y0124547D01*
X0265783Y0123779D01*
X0262713Y0123779D01*
X0261946Y0124547D01*
X0261946Y0126081D01*
X0262713Y0126849D01*
X0261946Y0122245D02*
X0261946Y0120710D01*
X0261946Y0121477D02*
X0266550Y0121477D01*
X0266550Y0120710D02*
X0266550Y0122245D01*
D16*
X0251549Y0157453D02*
X0226951Y0157453D01*
X0226951Y0171075D01*
X0251549Y0171075D01*
X0251549Y0157453D01*
X0227862Y0139191D02*
X0227862Y0136829D01*
X0223138Y0136829D02*
X0223138Y0139191D01*
X0223138Y0126691D02*
X0223138Y0124329D01*
X0227862Y0124329D02*
X0227862Y0126691D01*
X0195362Y0125441D02*
X0195362Y0123079D01*
X0190638Y0123079D02*
X0190638Y0125441D01*
X0194319Y0109122D02*
X0196681Y0109122D01*
X0196681Y0104398D02*
X0194319Y0104398D01*
X0166122Y0084085D02*
X0166122Y0081883D01*
X0163920Y0081883D01*
X0163186Y0082617D01*
X0163920Y0083351D01*
X0166122Y0083351D01*
X0166122Y0084085D02*
X0165388Y0084819D01*
X0163920Y0084819D01*
X0161518Y0084085D02*
X0161518Y0081883D01*
X0161518Y0084085D02*
X0160784Y0084819D01*
X0158582Y0084819D01*
X0158582Y0081883D01*
X0156914Y0081883D02*
X0156914Y0084085D01*
X0156180Y0084819D01*
X0153978Y0084819D01*
X0153978Y0081883D01*
X0152310Y0083351D02*
X0149374Y0083351D01*
X0149374Y0084085D02*
X0150108Y0084819D01*
X0151576Y0084819D01*
X0152310Y0084085D01*
X0152310Y0083351D01*
X0151576Y0081883D02*
X0150108Y0081883D01*
X0149374Y0082617D01*
X0149374Y0084085D01*
X0147773Y0084819D02*
X0146305Y0084819D01*
X0147039Y0085553D02*
X0147039Y0082617D01*
X0147773Y0081883D01*
X0144637Y0081883D02*
X0144637Y0084085D01*
X0143903Y0084819D01*
X0141701Y0084819D01*
X0141701Y0081883D01*
X0140033Y0081883D02*
X0140033Y0084819D01*
X0138565Y0086287D01*
X0137097Y0084819D01*
X0137097Y0081883D01*
X0137097Y0084085D02*
X0140033Y0084085D01*
X0159319Y0164398D02*
X0161681Y0164398D01*
X0161681Y0169122D02*
X0159319Y0169122D01*
X0158486Y0191874D02*
X0156716Y0191874D01*
X0155831Y0192759D01*
X0155831Y0196299D01*
X0156716Y0197184D01*
X0158486Y0197184D01*
X0159371Y0196299D01*
X0159371Y0192759D02*
X0158486Y0191874D01*
X0153933Y0191874D02*
X0150393Y0191874D01*
X0153933Y0195414D01*
X0153933Y0196299D01*
X0153048Y0197184D01*
X0151278Y0197184D01*
X0150393Y0196299D01*
X0148538Y0197184D02*
X0146768Y0197184D01*
X0147653Y0197184D02*
X0147653Y0191874D01*
X0146768Y0191874D02*
X0148538Y0191874D01*
X0150500Y0208010D02*
X0155500Y0208010D01*
X0158000Y0210510D01*
X0160500Y0208010D01*
X0165500Y0208010D01*
X0168000Y0210510D01*
X0168000Y0215510D01*
X0165500Y0218010D01*
X0160500Y0218010D01*
X0158000Y0215510D01*
X0158000Y0210510D01*
X0158000Y0215510D02*
X0155500Y0218010D01*
X0150500Y0218010D01*
X0148000Y0215510D01*
X0148000Y0210510D01*
X0150500Y0208010D01*
X0148000Y0210510D02*
X0145500Y0208010D01*
X0140500Y0208010D01*
X0138000Y0210510D01*
X0135500Y0208010D01*
X0130500Y0208010D01*
X0128000Y0210510D01*
X0125500Y0208010D01*
X0120500Y0208010D01*
X0118000Y0210510D01*
X0118000Y0215510D01*
X0120500Y0218010D01*
X0125500Y0218010D01*
X0128000Y0215510D01*
X0130500Y0218010D01*
X0135500Y0218010D01*
X0138000Y0215510D01*
X0138000Y0210510D01*
X0138000Y0215510D02*
X0140500Y0218010D01*
X0145500Y0218010D01*
X0148000Y0215510D01*
X0132931Y0224398D02*
X0130569Y0224398D01*
X0130569Y0229122D02*
X0132931Y0229122D01*
X0128000Y0215510D02*
X0128000Y0210510D01*
X0168000Y0210510D02*
X0170500Y0208010D01*
X0175500Y0208010D01*
X0178000Y0210510D01*
X0180500Y0208010D01*
X0185500Y0208010D01*
X0188000Y0210510D01*
X0190500Y0208010D01*
X0195500Y0208010D01*
X0198000Y0210510D01*
X0198000Y0215510D01*
X0195500Y0218010D01*
X0190500Y0218010D01*
X0188000Y0215510D01*
X0188000Y0210510D01*
X0188000Y0215510D02*
X0185500Y0218010D01*
X0180500Y0218010D01*
X0178000Y0215510D01*
X0178000Y0210510D01*
X0178000Y0215510D02*
X0175500Y0218010D01*
X0170500Y0218010D01*
X0168000Y0215510D01*
X0173000Y0222010D02*
X0188000Y0222010D01*
X0188060Y0222012D01*
X0188121Y0222017D01*
X0188180Y0222026D01*
X0188239Y0222039D01*
X0188298Y0222055D01*
X0188355Y0222075D01*
X0188410Y0222098D01*
X0188465Y0222125D01*
X0188517Y0222154D01*
X0188568Y0222187D01*
X0188617Y0222223D01*
X0188663Y0222261D01*
X0188707Y0222303D01*
X0188749Y0222347D01*
X0188787Y0222393D01*
X0188823Y0222442D01*
X0188856Y0222493D01*
X0188885Y0222545D01*
X0188912Y0222600D01*
X0188935Y0222655D01*
X0188955Y0222712D01*
X0188971Y0222771D01*
X0188984Y0222830D01*
X0188993Y0222889D01*
X0188998Y0222950D01*
X0189000Y0223010D01*
X0189000Y0233010D01*
X0188998Y0233070D01*
X0188993Y0233131D01*
X0188984Y0233190D01*
X0188971Y0233249D01*
X0188955Y0233308D01*
X0188935Y0233365D01*
X0188912Y0233420D01*
X0188885Y0233475D01*
X0188856Y0233527D01*
X0188823Y0233578D01*
X0188787Y0233627D01*
X0188749Y0233673D01*
X0188707Y0233717D01*
X0188663Y0233759D01*
X0188617Y0233797D01*
X0188568Y0233833D01*
X0188517Y0233866D01*
X0188465Y0233895D01*
X0188410Y0233922D01*
X0188355Y0233945D01*
X0188298Y0233965D01*
X0188239Y0233981D01*
X0188180Y0233994D01*
X0188121Y0234003D01*
X0188060Y0234008D01*
X0188000Y0234010D01*
X0173000Y0234010D01*
X0172940Y0234008D01*
X0172879Y0234003D01*
X0172820Y0233994D01*
X0172761Y0233981D01*
X0172702Y0233965D01*
X0172645Y0233945D01*
X0172590Y0233922D01*
X0172535Y0233895D01*
X0172483Y0233866D01*
X0172432Y0233833D01*
X0172383Y0233797D01*
X0172337Y0233759D01*
X0172293Y0233717D01*
X0172251Y0233673D01*
X0172213Y0233627D01*
X0172177Y0233578D01*
X0172144Y0233527D01*
X0172115Y0233475D01*
X0172088Y0233420D01*
X0172065Y0233365D01*
X0172045Y0233308D01*
X0172029Y0233249D01*
X0172016Y0233190D01*
X0172007Y0233131D01*
X0172002Y0233070D01*
X0172000Y0233010D01*
X0172000Y0223010D01*
X0172002Y0222950D01*
X0172007Y0222889D01*
X0172016Y0222830D01*
X0172029Y0222771D01*
X0172045Y0222712D01*
X0172065Y0222655D01*
X0172088Y0222600D01*
X0172115Y0222545D01*
X0172144Y0222493D01*
X0172177Y0222442D01*
X0172213Y0222393D01*
X0172251Y0222347D01*
X0172293Y0222303D01*
X0172337Y0222261D01*
X0172383Y0222223D01*
X0172432Y0222187D01*
X0172483Y0222154D01*
X0172535Y0222125D01*
X0172590Y0222098D01*
X0172645Y0222075D01*
X0172702Y0222055D01*
X0172761Y0222039D01*
X0172820Y0222026D01*
X0172879Y0222017D01*
X0172940Y0222012D01*
X0173000Y0222010D01*
X0208000Y0215510D02*
X0208000Y0210510D01*
X0210500Y0208010D01*
X0215500Y0208010D01*
X0218000Y0210510D01*
X0220500Y0208010D01*
X0225500Y0208010D01*
X0228000Y0210510D01*
X0228000Y0215510D01*
X0225500Y0218010D01*
X0220500Y0218010D01*
X0218000Y0215510D01*
X0218000Y0210510D01*
X0218000Y0215510D02*
X0215500Y0218010D01*
X0210500Y0218010D01*
X0208000Y0215510D01*
X0228000Y0215510D02*
X0230500Y0218010D01*
X0235500Y0218010D01*
X0238000Y0215510D01*
X0240500Y0218010D01*
X0245500Y0218010D01*
X0248000Y0215510D01*
X0250500Y0218010D01*
X0255500Y0218010D01*
X0258000Y0215510D01*
X0258000Y0210510D01*
X0255500Y0208010D01*
X0250500Y0208010D01*
X0248000Y0210510D01*
X0245500Y0208010D01*
X0240500Y0208010D01*
X0238000Y0210510D01*
X0235500Y0208010D01*
X0230500Y0208010D01*
X0228000Y0210510D01*
X0238000Y0210510D02*
X0238000Y0215510D01*
X0248000Y0215510D02*
X0248000Y0210510D01*
X0258000Y0210510D02*
X0260500Y0208010D01*
X0265500Y0208010D01*
X0268000Y0210510D01*
X0270500Y0208010D01*
X0275500Y0208010D01*
X0278000Y0210510D01*
X0280500Y0208010D01*
X0285500Y0208010D01*
X0288000Y0210510D01*
X0288000Y0215510D01*
X0285500Y0218010D01*
X0280500Y0218010D01*
X0278000Y0215510D01*
X0278000Y0210510D01*
X0278000Y0215510D02*
X0275500Y0218010D01*
X0270500Y0218010D01*
X0268000Y0215510D01*
X0268000Y0210510D01*
X0268000Y0215510D02*
X0265500Y0218010D01*
X0260500Y0218010D01*
X0258000Y0215510D01*
X0253000Y0222010D02*
X0268000Y0222010D01*
X0268060Y0222012D01*
X0268121Y0222017D01*
X0268180Y0222026D01*
X0268239Y0222039D01*
X0268298Y0222055D01*
X0268355Y0222075D01*
X0268410Y0222098D01*
X0268465Y0222125D01*
X0268517Y0222154D01*
X0268568Y0222187D01*
X0268617Y0222223D01*
X0268663Y0222261D01*
X0268707Y0222303D01*
X0268749Y0222347D01*
X0268787Y0222393D01*
X0268823Y0222442D01*
X0268856Y0222493D01*
X0268885Y0222545D01*
X0268912Y0222600D01*
X0268935Y0222655D01*
X0268955Y0222712D01*
X0268971Y0222771D01*
X0268984Y0222830D01*
X0268993Y0222889D01*
X0268998Y0222950D01*
X0269000Y0223010D01*
X0269000Y0233010D01*
X0268998Y0233070D01*
X0268993Y0233131D01*
X0268984Y0233190D01*
X0268971Y0233249D01*
X0268955Y0233308D01*
X0268935Y0233365D01*
X0268912Y0233420D01*
X0268885Y0233475D01*
X0268856Y0233527D01*
X0268823Y0233578D01*
X0268787Y0233627D01*
X0268749Y0233673D01*
X0268707Y0233717D01*
X0268663Y0233759D01*
X0268617Y0233797D01*
X0268568Y0233833D01*
X0268517Y0233866D01*
X0268465Y0233895D01*
X0268410Y0233922D01*
X0268355Y0233945D01*
X0268298Y0233965D01*
X0268239Y0233981D01*
X0268180Y0233994D01*
X0268121Y0234003D01*
X0268060Y0234008D01*
X0268000Y0234010D01*
X0253000Y0234010D01*
X0252940Y0234008D01*
X0252879Y0234003D01*
X0252820Y0233994D01*
X0252761Y0233981D01*
X0252702Y0233965D01*
X0252645Y0233945D01*
X0252590Y0233922D01*
X0252535Y0233895D01*
X0252483Y0233866D01*
X0252432Y0233833D01*
X0252383Y0233797D01*
X0252337Y0233759D01*
X0252293Y0233717D01*
X0252251Y0233673D01*
X0252213Y0233627D01*
X0252177Y0233578D01*
X0252144Y0233527D01*
X0252115Y0233475D01*
X0252088Y0233420D01*
X0252065Y0233365D01*
X0252045Y0233308D01*
X0252029Y0233249D01*
X0252016Y0233190D01*
X0252007Y0233131D01*
X0252002Y0233070D01*
X0252000Y0233010D01*
X0252000Y0223010D01*
X0252002Y0222950D01*
X0252007Y0222889D01*
X0252016Y0222830D01*
X0252029Y0222771D01*
X0252045Y0222712D01*
X0252065Y0222655D01*
X0252088Y0222600D01*
X0252115Y0222545D01*
X0252144Y0222493D01*
X0252177Y0222442D01*
X0252213Y0222393D01*
X0252251Y0222347D01*
X0252293Y0222303D01*
X0252337Y0222261D01*
X0252383Y0222223D01*
X0252432Y0222187D01*
X0252483Y0222154D01*
X0252535Y0222125D01*
X0252590Y0222098D01*
X0252645Y0222075D01*
X0252702Y0222055D01*
X0252761Y0222039D01*
X0252820Y0222026D01*
X0252879Y0222017D01*
X0252940Y0222012D01*
X0253000Y0222010D01*
X0250500Y0258010D02*
X0248000Y0260510D01*
X0245500Y0258010D01*
X0240500Y0258010D01*
X0238000Y0260510D01*
X0235500Y0258010D01*
X0230500Y0258010D01*
X0228000Y0260510D01*
X0225500Y0258010D01*
X0220500Y0258010D01*
X0218000Y0260510D01*
X0215500Y0258010D01*
X0210500Y0258010D01*
X0208000Y0260510D01*
X0208000Y0265510D01*
X0210500Y0268010D01*
X0215500Y0268010D01*
X0218000Y0265510D01*
X0220500Y0268010D01*
X0225500Y0268010D01*
X0228000Y0265510D01*
X0228000Y0260510D01*
X0228000Y0265510D02*
X0230500Y0268010D01*
X0235500Y0268010D01*
X0238000Y0265510D01*
X0240500Y0268010D01*
X0245500Y0268010D01*
X0248000Y0265510D01*
X0250500Y0268010D01*
X0255500Y0268010D01*
X0258000Y0265510D01*
X0258000Y0260510D01*
X0255500Y0258010D01*
X0250500Y0258010D01*
X0248000Y0260510D02*
X0248000Y0265510D01*
X0258000Y0265510D02*
X0260500Y0268010D01*
X0265500Y0268010D01*
X0268000Y0265510D01*
X0270500Y0268010D01*
X0275500Y0268010D01*
X0278000Y0265510D01*
X0280500Y0268010D01*
X0285500Y0268010D01*
X0288000Y0265510D01*
X0288000Y0260510D01*
X0285500Y0258010D01*
X0280500Y0258010D01*
X0278000Y0260510D01*
X0275500Y0258010D01*
X0270500Y0258010D01*
X0268000Y0260510D01*
X0265500Y0258010D01*
X0260500Y0258010D01*
X0258000Y0260510D01*
X0268000Y0260510D02*
X0268000Y0265510D01*
X0278000Y0265510D02*
X0278000Y0260510D01*
X0281819Y0271898D02*
X0284181Y0271898D01*
X0284181Y0276622D02*
X0281819Y0276622D01*
X0281819Y0281898D02*
X0284181Y0281898D01*
X0284181Y0286622D02*
X0281819Y0286622D01*
X0238000Y0265510D02*
X0238000Y0260510D01*
X0218000Y0260510D02*
X0218000Y0265510D01*
X0198000Y0265510D02*
X0198000Y0260510D01*
X0195500Y0258010D01*
X0190500Y0258010D01*
X0188000Y0260510D01*
X0185500Y0258010D01*
X0180500Y0258010D01*
X0178000Y0260510D01*
X0175500Y0258010D01*
X0170500Y0258010D01*
X0168000Y0260510D01*
X0165500Y0258010D01*
X0160500Y0258010D01*
X0158000Y0260510D01*
X0155500Y0258010D01*
X0150500Y0258010D01*
X0148000Y0260510D01*
X0145500Y0258010D01*
X0140500Y0258010D01*
X0138000Y0260510D01*
X0135500Y0258010D01*
X0130500Y0258010D01*
X0128000Y0260510D01*
X0125500Y0258010D01*
X0120500Y0258010D01*
X0118000Y0260510D01*
X0118000Y0265510D01*
X0120500Y0268010D01*
X0125500Y0268010D01*
X0128000Y0265510D01*
X0130500Y0268010D01*
X0135500Y0268010D01*
X0138000Y0265510D01*
X0138000Y0260510D01*
X0138000Y0265510D02*
X0140500Y0268010D01*
X0145500Y0268010D01*
X0148000Y0265510D01*
X0150500Y0268010D01*
X0155500Y0268010D01*
X0158000Y0265510D01*
X0160500Y0268010D01*
X0165500Y0268010D01*
X0168000Y0265510D01*
X0168000Y0260510D01*
X0168000Y0265510D02*
X0170500Y0268010D01*
X0175500Y0268010D01*
X0178000Y0265510D01*
X0180500Y0268010D01*
X0185500Y0268010D01*
X0188000Y0265510D01*
X0190500Y0268010D01*
X0195500Y0268010D01*
X0198000Y0265510D01*
X0188000Y0265510D02*
X0188000Y0260510D01*
X0178000Y0260510D02*
X0178000Y0265510D01*
X0158000Y0265510D02*
X0158000Y0260510D01*
X0148000Y0260510D02*
X0148000Y0265510D01*
X0128000Y0265510D02*
X0128000Y0260510D01*
X0124181Y0280648D02*
X0121819Y0280648D01*
X0121819Y0285372D02*
X0124181Y0285372D01*
D17*
X0133000Y0285510D02*
X0133000Y0280510D01*
X0135500Y0278010D01*
X0140500Y0278010D01*
X0143000Y0280510D01*
X0145500Y0278010D01*
X0150500Y0278010D01*
X0153000Y0280510D01*
X0155500Y0278010D01*
X0160500Y0278010D01*
X0163000Y0280510D01*
X0165500Y0278010D01*
X0170500Y0278010D01*
X0173000Y0280510D01*
X0173000Y0285510D01*
X0170500Y0288010D01*
X0165500Y0288010D01*
X0163000Y0285510D01*
X0160500Y0288010D01*
X0155500Y0288010D01*
X0153000Y0285510D01*
X0150500Y0288010D01*
X0145500Y0288010D01*
X0143000Y0285510D01*
X0140500Y0288010D01*
X0135500Y0288010D01*
X0133000Y0285510D01*
X0134250Y0188010D02*
X0131750Y0185510D01*
X0131750Y0180510D01*
X0134250Y0178010D01*
X0139250Y0178010D01*
X0141750Y0180510D01*
X0144250Y0178010D01*
X0149250Y0178010D01*
X0151750Y0180510D01*
X0154250Y0178010D01*
X0159250Y0178010D01*
X0161750Y0180510D01*
X0164250Y0178010D01*
X0169250Y0178010D01*
X0171750Y0180510D01*
X0171750Y0185510D01*
X0169250Y0188010D01*
X0164250Y0188010D01*
X0161750Y0185510D01*
X0159250Y0188010D01*
X0154250Y0188010D01*
X0151750Y0185510D01*
X0149250Y0188010D01*
X0144250Y0188010D01*
X0141750Y0185510D01*
X0139250Y0188010D01*
X0134250Y0188010D01*
X0124250Y0180510D02*
X0121750Y0183010D01*
X0116750Y0183010D01*
X0114250Y0180510D01*
X0114250Y0175510D01*
X0116750Y0173010D01*
X0114250Y0170510D01*
X0114250Y0165510D01*
X0116750Y0163010D01*
X0121750Y0163010D01*
X0124250Y0165510D01*
X0124250Y0170510D01*
X0121750Y0173010D01*
X0124250Y0175510D01*
X0124250Y0180510D01*
X0194654Y0150490D02*
X0194654Y0144585D01*
X0194654Y0144584D02*
X0194727Y0144548D01*
X0194798Y0144507D01*
X0194868Y0144464D01*
X0194935Y0144417D01*
X0195000Y0144367D01*
X0195062Y0144314D01*
X0195122Y0144259D01*
X0195179Y0144200D01*
X0195234Y0144139D01*
X0195285Y0144075D01*
X0195334Y0144009D01*
X0195379Y0143941D01*
X0195421Y0143871D01*
X0195460Y0143799D01*
X0195496Y0143725D01*
X0195527Y0143650D01*
X0195556Y0143573D01*
X0195580Y0143495D01*
X0195601Y0143416D01*
X0195618Y0143336D01*
X0195632Y0143255D01*
X0195641Y0143174D01*
X0195647Y0143092D01*
X0195649Y0143010D01*
X0195647Y0142928D01*
X0195641Y0142846D01*
X0195632Y0142765D01*
X0195618Y0142684D01*
X0195601Y0142604D01*
X0195580Y0142525D01*
X0195556Y0142447D01*
X0195527Y0142370D01*
X0195496Y0142295D01*
X0195460Y0142221D01*
X0195421Y0142149D01*
X0195379Y0142079D01*
X0195334Y0142011D01*
X0195285Y0141945D01*
X0195234Y0141881D01*
X0195179Y0141820D01*
X0195122Y0141761D01*
X0195062Y0141706D01*
X0195000Y0141653D01*
X0194935Y0141603D01*
X0194868Y0141556D01*
X0194798Y0141513D01*
X0194727Y0141472D01*
X0194654Y0141436D01*
X0194654Y0141435D02*
X0194654Y0135530D01*
X0201346Y0135530D01*
X0201346Y0141435D01*
X0201346Y0141436D02*
X0201273Y0141472D01*
X0201202Y0141513D01*
X0201132Y0141556D01*
X0201065Y0141603D01*
X0201000Y0141653D01*
X0200938Y0141706D01*
X0200878Y0141761D01*
X0200821Y0141820D01*
X0200766Y0141881D01*
X0200715Y0141945D01*
X0200666Y0142011D01*
X0200621Y0142079D01*
X0200579Y0142149D01*
X0200540Y0142221D01*
X0200504Y0142295D01*
X0200473Y0142370D01*
X0200444Y0142447D01*
X0200420Y0142525D01*
X0200399Y0142604D01*
X0200382Y0142684D01*
X0200368Y0142765D01*
X0200359Y0142846D01*
X0200353Y0142928D01*
X0200351Y0143010D01*
X0200353Y0143092D01*
X0200359Y0143174D01*
X0200368Y0143255D01*
X0200382Y0143336D01*
X0200399Y0143416D01*
X0200420Y0143495D01*
X0200444Y0143573D01*
X0200473Y0143650D01*
X0200504Y0143725D01*
X0200540Y0143799D01*
X0200579Y0143871D01*
X0200621Y0143941D01*
X0200666Y0144009D01*
X0200715Y0144075D01*
X0200766Y0144139D01*
X0200821Y0144200D01*
X0200878Y0144259D01*
X0200938Y0144314D01*
X0201000Y0144367D01*
X0201065Y0144417D01*
X0201132Y0144464D01*
X0201202Y0144507D01*
X0201273Y0144548D01*
X0201346Y0144584D01*
X0201346Y0144585D02*
X0201346Y0150490D01*
X0194654Y0150490D01*
X0200717Y0170530D02*
X0200717Y0176435D01*
X0200717Y0176436D02*
X0200790Y0176472D01*
X0200861Y0176513D01*
X0200931Y0176556D01*
X0200998Y0176603D01*
X0201063Y0176653D01*
X0201125Y0176706D01*
X0201185Y0176761D01*
X0201242Y0176820D01*
X0201297Y0176881D01*
X0201348Y0176945D01*
X0201397Y0177011D01*
X0201442Y0177079D01*
X0201484Y0177149D01*
X0201523Y0177221D01*
X0201559Y0177295D01*
X0201590Y0177370D01*
X0201619Y0177447D01*
X0201643Y0177525D01*
X0201664Y0177604D01*
X0201681Y0177684D01*
X0201695Y0177765D01*
X0201704Y0177846D01*
X0201710Y0177928D01*
X0201712Y0178010D01*
X0201710Y0178092D01*
X0201704Y0178174D01*
X0201695Y0178255D01*
X0201681Y0178336D01*
X0201664Y0178416D01*
X0201643Y0178495D01*
X0201619Y0178573D01*
X0201590Y0178650D01*
X0201559Y0178725D01*
X0201523Y0178799D01*
X0201484Y0178871D01*
X0201442Y0178941D01*
X0201397Y0179009D01*
X0201348Y0179075D01*
X0201297Y0179139D01*
X0201242Y0179200D01*
X0201185Y0179259D01*
X0201125Y0179314D01*
X0201063Y0179367D01*
X0200998Y0179417D01*
X0200931Y0179464D01*
X0200861Y0179507D01*
X0200790Y0179548D01*
X0200717Y0179584D01*
X0200717Y0179585D02*
X0200717Y0185490D01*
X0215283Y0185490D01*
X0215283Y0179585D01*
X0215283Y0179584D02*
X0215210Y0179548D01*
X0215139Y0179507D01*
X0215069Y0179464D01*
X0215002Y0179417D01*
X0214937Y0179367D01*
X0214875Y0179314D01*
X0214815Y0179259D01*
X0214758Y0179200D01*
X0214703Y0179139D01*
X0214652Y0179075D01*
X0214603Y0179009D01*
X0214558Y0178941D01*
X0214516Y0178871D01*
X0214477Y0178799D01*
X0214441Y0178725D01*
X0214410Y0178650D01*
X0214381Y0178573D01*
X0214357Y0178495D01*
X0214336Y0178416D01*
X0214319Y0178336D01*
X0214305Y0178255D01*
X0214296Y0178174D01*
X0214290Y0178092D01*
X0214288Y0178010D01*
X0214290Y0177928D01*
X0214296Y0177846D01*
X0214305Y0177765D01*
X0214319Y0177684D01*
X0214336Y0177604D01*
X0214357Y0177525D01*
X0214381Y0177447D01*
X0214410Y0177370D01*
X0214441Y0177295D01*
X0214477Y0177221D01*
X0214516Y0177149D01*
X0214558Y0177079D01*
X0214603Y0177011D01*
X0214652Y0176945D01*
X0214703Y0176881D01*
X0214758Y0176820D01*
X0214815Y0176761D01*
X0214875Y0176706D01*
X0214937Y0176653D01*
X0215002Y0176603D01*
X0215069Y0176556D01*
X0215139Y0176513D01*
X0215210Y0176472D01*
X0215283Y0176436D01*
X0215283Y0176435D02*
X0215283Y0170530D01*
X0200717Y0170530D01*
X0232026Y0131603D02*
X0241474Y0131603D01*
X0241474Y0125697D01*
X0241474Y0117823D02*
X0241474Y0113492D01*
X0239900Y0111917D01*
X0233600Y0111917D01*
X0232026Y0113492D01*
X0232026Y0117823D01*
X0232026Y0125697D02*
X0232026Y0131603D01*
X0249526Y0134103D02*
X0249526Y0128197D01*
X0249526Y0134103D02*
X0258974Y0134103D01*
X0258974Y0128197D01*
X0258974Y0120323D02*
X0258974Y0115992D01*
X0257400Y0114417D01*
X0251100Y0114417D01*
X0249526Y0115992D01*
X0249526Y0120323D01*
X0246907Y0106484D02*
X0252813Y0106484D01*
X0246907Y0106484D02*
X0246907Y0097036D01*
X0252813Y0097036D01*
X0260687Y0097036D02*
X0265018Y0097036D01*
X0266593Y0098610D01*
X0266593Y0104910D01*
X0265018Y0106484D01*
X0260687Y0106484D01*
X0268848Y0122010D02*
X0268850Y0145610D01*
X0268848Y0122010D02*
X0294652Y0122010D01*
X0294650Y0145610D01*
X0275500Y0185510D02*
X0270500Y0185510D01*
X0268000Y0188010D01*
X0265500Y0185510D01*
X0260500Y0185510D01*
X0258000Y0188010D01*
X0255500Y0185510D01*
X0250500Y0185510D01*
X0248000Y0188010D01*
X0248000Y0193010D01*
X0250500Y0195510D01*
X0255500Y0195510D01*
X0258000Y0193010D01*
X0260500Y0195510D01*
X0265500Y0195510D01*
X0268000Y0193010D01*
X0270500Y0195510D01*
X0275500Y0195510D01*
X0278000Y0193010D01*
X0278000Y0188010D01*
X0275500Y0185510D01*
X0225018Y0103984D02*
X0220687Y0103984D01*
X0225018Y0103984D02*
X0226593Y0102410D01*
X0226593Y0096110D01*
X0225018Y0094536D01*
X0220687Y0094536D01*
X0219250Y0091760D02*
X0224250Y0091760D01*
X0226750Y0089260D01*
X0229250Y0091760D01*
X0234250Y0091760D01*
X0236750Y0089260D01*
X0236750Y0084260D01*
X0234250Y0081760D01*
X0229250Y0081760D01*
X0226750Y0084260D01*
X0224250Y0081760D01*
X0219250Y0081760D01*
X0216750Y0084260D01*
X0214250Y0081760D01*
X0209250Y0081760D01*
X0206750Y0084260D01*
X0206750Y0089260D01*
X0209250Y0091760D01*
X0214250Y0091760D01*
X0216750Y0089260D01*
X0219250Y0091760D01*
X0212813Y0094536D02*
X0206907Y0094536D01*
X0206907Y0103984D01*
X0212813Y0103984D01*
X0214250Y0079260D02*
X0209250Y0079260D01*
X0206750Y0076760D01*
X0206750Y0071760D01*
X0209250Y0069260D01*
X0214250Y0069260D01*
X0216750Y0071760D01*
X0219250Y0069260D01*
X0224250Y0069260D01*
X0226750Y0071760D01*
X0229250Y0069260D01*
X0234250Y0069260D01*
X0236750Y0071760D01*
X0236750Y0076760D01*
X0234250Y0079260D01*
X0229250Y0079260D01*
X0226750Y0076760D01*
X0224250Y0079260D01*
X0219250Y0079260D01*
X0216750Y0076760D01*
X0214250Y0079260D01*
X0288000Y0080510D02*
X0288000Y0085510D01*
X0290500Y0088010D01*
X0288000Y0090510D01*
X0288000Y0095510D01*
X0290500Y0098010D01*
X0295500Y0098010D01*
X0298000Y0095510D01*
X0298000Y0090510D01*
X0295500Y0088010D01*
X0298000Y0085510D01*
X0298000Y0080510D01*
X0295500Y0078010D01*
X0290500Y0078010D01*
X0288000Y0080510D01*
X0270500Y0278010D02*
X0265500Y0278010D01*
X0263000Y0280510D01*
X0260500Y0278010D01*
X0255500Y0278010D01*
X0253000Y0280510D01*
X0250500Y0278010D01*
X0245500Y0278010D01*
X0243000Y0280510D01*
X0240500Y0278010D01*
X0235500Y0278010D01*
X0233000Y0280510D01*
X0233000Y0285510D01*
X0235500Y0288010D01*
X0240500Y0288010D01*
X0243000Y0285510D01*
X0245500Y0288010D01*
X0250500Y0288010D01*
X0253000Y0285510D01*
X0255500Y0288010D01*
X0260500Y0288010D01*
X0263000Y0285510D01*
X0265500Y0288010D01*
X0270500Y0288010D01*
X0273000Y0285510D01*
X0273000Y0280510D01*
X0270500Y0278010D01*
D18*
X0280050Y0278060D02*
X0280801Y0278060D01*
X0281051Y0278311D01*
X0281051Y0278811D01*
X0280801Y0279061D01*
X0280050Y0279061D01*
X0280050Y0277560D01*
X0280550Y0278060D02*
X0281051Y0277560D01*
X0281523Y0277810D02*
X0281773Y0277560D01*
X0282274Y0277560D01*
X0282524Y0277810D01*
X0282524Y0278311D01*
X0282274Y0278561D01*
X0282024Y0278561D01*
X0281523Y0278311D01*
X0281523Y0279061D01*
X0282524Y0279061D01*
X0283103Y0279460D02*
X0283103Y0280961D01*
X0283854Y0280961D01*
X0284104Y0280711D01*
X0284104Y0280211D01*
X0283854Y0279960D01*
X0283103Y0279960D01*
X0283604Y0279960D02*
X0284104Y0279460D01*
X0284577Y0279710D02*
X0284827Y0279460D01*
X0285327Y0279460D01*
X0285578Y0279710D01*
X0285578Y0279960D01*
X0285327Y0280211D01*
X0285077Y0280211D01*
X0285327Y0280211D02*
X0285578Y0280461D01*
X0285578Y0280711D01*
X0285327Y0280961D01*
X0284827Y0280961D01*
X0284577Y0280711D01*
X0293487Y0199418D02*
X0293487Y0198417D01*
X0293487Y0198918D02*
X0291986Y0198918D01*
X0292486Y0198417D01*
X0292236Y0197945D02*
X0291986Y0197695D01*
X0291986Y0196944D01*
X0293487Y0196944D01*
X0293487Y0197695D01*
X0293237Y0197945D01*
X0292236Y0197945D01*
X0288327Y0176461D02*
X0287577Y0175711D01*
X0288578Y0175711D01*
X0288327Y0176461D02*
X0288327Y0174960D01*
X0287104Y0175210D02*
X0286854Y0174960D01*
X0286354Y0174960D01*
X0286103Y0175210D01*
X0286103Y0176211D01*
X0286354Y0176461D01*
X0286854Y0176461D01*
X0287104Y0176211D01*
X0260987Y0133838D02*
X0261237Y0133587D01*
X0261237Y0133087D01*
X0260987Y0132837D01*
X0260737Y0132837D01*
X0260486Y0133087D01*
X0260486Y0133587D01*
X0260737Y0133838D01*
X0260987Y0133838D01*
X0260486Y0133587D02*
X0260236Y0133838D01*
X0259986Y0133838D01*
X0259736Y0133587D01*
X0259736Y0133087D01*
X0259986Y0132837D01*
X0260236Y0132837D01*
X0260486Y0133087D01*
X0259986Y0132364D02*
X0259736Y0132114D01*
X0259736Y0131614D01*
X0259986Y0131363D01*
X0260987Y0131363D01*
X0261237Y0131614D01*
X0261237Y0132114D01*
X0260987Y0132364D01*
X0243737Y0131338D02*
X0243737Y0130337D01*
X0243737Y0130837D02*
X0242236Y0130837D01*
X0242736Y0130337D01*
X0242486Y0129864D02*
X0242236Y0129614D01*
X0242236Y0129114D01*
X0242486Y0128863D01*
X0243487Y0128863D01*
X0243737Y0129114D01*
X0243737Y0129614D01*
X0243487Y0129864D01*
X0230300Y0128088D02*
X0230300Y0127087D01*
X0230300Y0126614D02*
X0229800Y0126114D01*
X0229800Y0126364D02*
X0229800Y0125613D01*
X0230300Y0125613D02*
X0228799Y0125613D01*
X0228799Y0126364D01*
X0229049Y0126614D01*
X0229549Y0126614D01*
X0229800Y0126364D01*
X0229299Y0127087D02*
X0228799Y0127587D01*
X0230300Y0127587D01*
X0230300Y0138113D02*
X0228799Y0138113D01*
X0228799Y0138864D01*
X0229049Y0139114D01*
X0229549Y0139114D01*
X0229800Y0138864D01*
X0229800Y0138113D01*
X0229800Y0138614D02*
X0230300Y0139114D01*
X0230300Y0139587D02*
X0229299Y0140588D01*
X0229049Y0140588D01*
X0228799Y0140337D01*
X0228799Y0139837D01*
X0229049Y0139587D01*
X0230300Y0139587D02*
X0230300Y0140588D01*
X0211050Y0154890D02*
X0211050Y0155391D01*
X0210800Y0155641D01*
X0211050Y0156113D02*
X0211050Y0157114D01*
X0211050Y0156614D02*
X0209549Y0156614D01*
X0210049Y0156113D01*
X0209799Y0155641D02*
X0209549Y0155391D01*
X0209549Y0154890D01*
X0209799Y0154640D01*
X0210800Y0154640D01*
X0211050Y0154890D01*
X0210800Y0157587D02*
X0209799Y0158588D01*
X0210800Y0158588D01*
X0211050Y0158337D01*
X0211050Y0157837D01*
X0210800Y0157587D01*
X0209799Y0157587D01*
X0209549Y0157837D01*
X0209549Y0158337D01*
X0209799Y0158588D01*
X0202288Y0171170D02*
X0201554Y0171170D01*
X0201921Y0171170D02*
X0201921Y0172271D01*
X0201554Y0171904D01*
X0195858Y0137271D02*
X0195858Y0136170D01*
X0195491Y0136170D02*
X0196225Y0136170D01*
X0195491Y0136904D02*
X0195858Y0137271D01*
X0188449Y0123784D02*
X0189450Y0122783D01*
X0189700Y0122783D01*
X0189700Y0122311D02*
X0189200Y0121810D01*
X0189200Y0122061D02*
X0189200Y0121310D01*
X0189700Y0121310D02*
X0188199Y0121310D01*
X0188199Y0122061D01*
X0188449Y0122311D01*
X0188949Y0122311D01*
X0189200Y0122061D01*
X0188199Y0122783D02*
X0188199Y0123784D01*
X0188449Y0123784D01*
X0192550Y0111561D02*
X0193301Y0111561D01*
X0193551Y0111311D01*
X0193551Y0110811D01*
X0193301Y0110560D01*
X0192550Y0110560D01*
X0192550Y0110060D02*
X0192550Y0111561D01*
X0193050Y0110560D02*
X0193551Y0110060D01*
X0194023Y0110310D02*
X0194273Y0110060D01*
X0194774Y0110060D01*
X0195024Y0110310D01*
X0195024Y0111311D01*
X0194774Y0111561D01*
X0194273Y0111561D01*
X0194023Y0111311D01*
X0194023Y0111061D01*
X0194273Y0110811D01*
X0195024Y0110811D01*
X0206800Y0105998D02*
X0206800Y0104997D01*
X0207050Y0104747D01*
X0207551Y0104747D01*
X0207801Y0104997D01*
X0208273Y0104747D02*
X0209274Y0105748D01*
X0209274Y0105998D01*
X0209024Y0106248D01*
X0208523Y0106248D01*
X0208273Y0105998D01*
X0207801Y0105998D02*
X0207551Y0106248D01*
X0207050Y0106248D01*
X0206800Y0105998D01*
X0208273Y0104747D02*
X0209274Y0104747D01*
X0246800Y0107497D02*
X0247050Y0107247D01*
X0247551Y0107247D01*
X0247801Y0107497D01*
X0248273Y0107497D02*
X0248523Y0107247D01*
X0249024Y0107247D01*
X0249274Y0107497D01*
X0249274Y0108498D01*
X0249024Y0108748D01*
X0248523Y0108748D01*
X0248273Y0108498D01*
X0248273Y0108248D01*
X0248523Y0107998D01*
X0249274Y0107998D01*
X0247801Y0108498D02*
X0247551Y0108748D01*
X0247050Y0108748D01*
X0246800Y0108498D01*
X0246800Y0107497D01*
X0252049Y0079838D02*
X0252299Y0079337D01*
X0252799Y0078837D01*
X0252799Y0079587D01*
X0253050Y0079838D01*
X0253300Y0079838D01*
X0253550Y0079587D01*
X0253550Y0079087D01*
X0253300Y0078837D01*
X0252799Y0078837D01*
X0252299Y0078364D02*
X0252049Y0078114D01*
X0252049Y0077614D01*
X0252299Y0077363D01*
X0253300Y0077363D01*
X0253550Y0077614D01*
X0253550Y0078114D01*
X0253300Y0078364D01*
X0160024Y0170310D02*
X0159774Y0170060D01*
X0159273Y0170060D01*
X0159023Y0170310D01*
X0159023Y0170560D01*
X0159273Y0170811D01*
X0159774Y0170811D01*
X0160024Y0170560D01*
X0160024Y0170310D01*
X0159774Y0170811D02*
X0160024Y0171061D01*
X0160024Y0171311D01*
X0159774Y0171561D01*
X0159273Y0171561D01*
X0159023Y0171311D01*
X0159023Y0171061D01*
X0159273Y0170811D01*
X0158551Y0170811D02*
X0158301Y0170560D01*
X0157550Y0170560D01*
X0157550Y0170060D02*
X0157550Y0171561D01*
X0158301Y0171561D01*
X0158551Y0171311D01*
X0158551Y0170811D01*
X0158050Y0170560D02*
X0158551Y0170060D01*
X0129800Y0190114D02*
X0129800Y0190614D01*
X0129550Y0190864D01*
X0129550Y0191337D02*
X0129800Y0191337D01*
X0129550Y0191337D02*
X0128549Y0192338D01*
X0128299Y0192338D01*
X0128299Y0191337D01*
X0128549Y0190864D02*
X0128299Y0190614D01*
X0128299Y0190114D01*
X0128549Y0189863D01*
X0129550Y0189863D01*
X0129800Y0190114D01*
X0129801Y0230060D02*
X0129300Y0230560D01*
X0129551Y0230560D02*
X0128800Y0230560D01*
X0128800Y0230060D02*
X0128800Y0231561D01*
X0129551Y0231561D01*
X0129801Y0231311D01*
X0129801Y0230811D01*
X0129551Y0230560D01*
X0130273Y0230811D02*
X0131274Y0230811D01*
X0131024Y0231561D02*
X0130273Y0230811D01*
X0131024Y0231561D02*
X0131024Y0230060D01*
X0122274Y0286310D02*
X0122524Y0286560D01*
X0122524Y0286810D01*
X0122274Y0287061D01*
X0121523Y0287061D01*
X0121523Y0286560D01*
X0121773Y0286310D01*
X0122274Y0286310D01*
X0121523Y0287061D02*
X0122024Y0287561D01*
X0122524Y0287811D01*
X0121051Y0287561D02*
X0121051Y0287061D01*
X0120801Y0286810D01*
X0120050Y0286810D01*
X0120050Y0286310D02*
X0120050Y0287811D01*
X0120801Y0287811D01*
X0121051Y0287561D01*
X0120550Y0286810D02*
X0121051Y0286310D01*
D19*
X0281750Y0120110D03*
D20*
X0231958Y0235223D02*
X0230724Y0235223D01*
X0230107Y0235840D01*
X0228892Y0235840D02*
X0228275Y0235223D01*
X0227041Y0235223D01*
X0226423Y0235840D01*
X0226423Y0238309D01*
X0227041Y0238926D01*
X0228275Y0238926D01*
X0228892Y0238309D01*
X0230107Y0238309D02*
X0230724Y0238926D01*
X0231958Y0238926D01*
X0232575Y0238309D01*
X0232575Y0237692D01*
X0231958Y0237075D01*
X0232575Y0236457D01*
X0232575Y0235840D01*
X0231958Y0235223D01*
X0231958Y0237075D02*
X0231341Y0237075D01*
X0142412Y0247714D02*
X0141795Y0247097D01*
X0140561Y0247097D01*
X0139943Y0247714D01*
X0138729Y0247714D02*
X0138112Y0247097D01*
X0136877Y0247097D01*
X0136260Y0247714D01*
X0136260Y0250183D01*
X0136877Y0250800D01*
X0138112Y0250800D01*
X0138729Y0250183D01*
X0139943Y0250800D02*
X0139943Y0248949D01*
X0141178Y0249566D01*
X0141795Y0249566D01*
X0142412Y0248949D01*
X0142412Y0247714D01*
X0142412Y0250800D02*
X0139943Y0250800D01*
D21*
X0166629Y0166458D02*
X0169898Y0161554D01*
X0171785Y0161554D02*
X0175054Y0161554D01*
X0173420Y0161554D02*
X0173420Y0166458D01*
X0171785Y0164824D01*
X0169898Y0166458D02*
X0166629Y0161554D01*
M02*
