G75*
%MOIN*%
%OFA0B0*%
%FSLAX25Y25*%
%IPPOS*%
%LPD*%
%AMOC8*
5,1,8,0,0,1.08239X$1,22.5*
%
%ADD10R,0.05900X0.07900*%
%ADD11R,0.15000X0.07900*%
%ADD12R,0.06299X0.05512*%
%ADD13R,0.04724X0.03150*%
%ADD14R,0.02756X0.03543*%
%ADD15R,0.05512X0.06299*%
%ADD16R,0.03150X0.04724*%
%ADD17R,0.21260X0.24409*%
%ADD18R,0.03937X0.06299*%
%ADD19R,0.05000X0.10000*%
%ADD20R,0.11811X0.05512*%
%ADD21R,0.02756X0.04724*%
%ADD22R,0.07874X0.04724*%
%ADD23R,0.03543X0.02756*%
D10*
X0230350Y0151860D03*
X0239350Y0151860D03*
X0248350Y0151860D03*
D11*
X0239250Y0176660D03*
D12*
X0254250Y0129772D03*
X0254250Y0118748D03*
X0236750Y0116248D03*
X0236750Y0127272D03*
D13*
X0225500Y0129053D03*
X0225500Y0134467D03*
X0225500Y0141553D03*
X0225500Y0121967D03*
X0193000Y0120717D03*
X0193000Y0127803D03*
D14*
X0282941Y0179260D03*
X0288059Y0179260D03*
D15*
X0262262Y0101760D03*
X0251238Y0101760D03*
X0222262Y0099260D03*
X0211238Y0099260D03*
D16*
X0199043Y0106760D03*
X0191957Y0106760D03*
X0164043Y0166760D03*
X0156957Y0166760D03*
X0135293Y0226760D03*
X0128207Y0226760D03*
X0126543Y0283010D03*
X0119457Y0283010D03*
X0279457Y0284260D03*
X0286543Y0284260D03*
X0286543Y0274260D03*
X0279457Y0274260D03*
D17*
X0281750Y0140353D03*
D18*
X0272774Y0111612D03*
X0290726Y0111612D03*
D19*
X0265500Y0228010D03*
X0255500Y0228010D03*
X0185500Y0228010D03*
X0175500Y0228010D03*
D20*
X0152449Y0243010D03*
X0133551Y0243010D03*
X0217301Y0243010D03*
X0236199Y0243010D03*
D21*
X0288000Y0202793D03*
X0288000Y0188227D03*
D22*
X0122222Y0099043D03*
X0122222Y0106917D03*
X0122222Y0114791D03*
X0122222Y0122666D03*
X0122222Y0130540D03*
X0122222Y0138414D03*
X0122222Y0146288D03*
X0122222Y0154162D03*
X0181278Y0154162D03*
X0181278Y0146288D03*
X0181278Y0138414D03*
X0181278Y0130540D03*
X0181278Y0122666D03*
X0181278Y0114791D03*
X0181278Y0106917D03*
X0181278Y0099043D03*
D23*
X0206750Y0152951D03*
X0206750Y0158069D03*
X0125500Y0186701D03*
X0125500Y0191819D03*
X0249250Y0079319D03*
X0249250Y0074201D03*
M02*
